<?xml version="1.0" encoding="UTF-8"?>
<svg xmlns="http://www.w3.org/2000/svg" version="1.1" viewBox="0 0 786.21 537.93">
  <defs>
    <style>
      .cls-1 {
        fill: #fff;
        fill-rule: evenodd;
      }

      .cls-2 {
        fill: #006fcf;
      }
    </style>
  </defs>
  <!-- Generator: Adobe Illustrator 28.7.9, SVG Export Plug-In . SVG Version: 1.2.0 Build 218)  -->
  <g>
    <g id="Layer_1">
      <rect class="cls-2" width="786.21" height="537.93" rx="48.28" ry="48.28"/>
      <path class="cls-1" d="M156.73,391.64v-113.58h128.6l13.8,16.82,14.25-16.82h466.79v105.75s-12.21,7.72-26.33,7.83h-258.47l-15.56-17.9v17.9h-50.98v-30.56s-6.96,4.27-22.02,4.27h-17.35v26.3h-77.18l-13.78-17.18-13.99,17.18h-127.8ZM6.9,192.45l28.93-63.22h50.04l16.42,35.42v-35.42h62.2l9.78,25.6,9.48-25.6h279.23v12.87s14.68-12.87,38.8-12.87l90.6.3,16.14,34.95v-35.25h52.06l14.33,20.08v-20.08h52.53v113.58h-52.53l-13.73-20.14v20.14h-76.48l-7.69-17.9h-20.56l-7.57,17.9h-51.87c-20.76,0-34.03-12.61-34.03-12.61v12.61h-78.2l-15.52-17.9v17.9H78.46l-7.69-17.9h-20.49l-7.63,17.9H6.9v-50.36ZM7.05,228.28l39.03-85.04h29.59l38.99,85.04h-25.97l-7.16-17.03h-41.86l-7.2,17.03H7.05ZM73.27,192.78l-12.76-29.76-12.8,29.76h25.56ZM117.33,228.26v-85.05l36.11.13,21,54.83,20.5-54.96h35.82v85.05h-22.68v-62.66l-24.05,62.66h-19.89l-24.11-62.66v62.66h-22.68ZM246.28,228.26v-85.05h74.02v19.02h-51.1v14.55h49.91v17.9h-49.91v15.11h51.1v18.46h-74.02ZM333.43,228.28v-85.04h50.48c16.73,0,31.71,9.69,31.71,27.59,0,15.3-12.64,25.15-24.89,26.12l29.85,31.33h-27.72l-27.2-30.21h-9.55v30.21h-22.68ZM382.05,162.26h-25.93v17.9h26.27c4.55,0,10.41-3.3,10.41-8.95,0-4.39-4.52-8.95-10.74-8.95ZM448.05,228.26h-23.16v-85.05h23.16v85.05ZM502.97,228.26h-5c-24.19,0-38.88-17.86-38.88-42.17s14.52-42.87,45.07-42.87h25.07v20.14h-25.99c-12.4,0-21.17,9.07-21.17,22.94,0,16.47,10.03,23.39,24.47,23.39h5.97l-9.55,18.58ZM513.31,228.28l39.03-85.04h29.59l38.99,85.04h-25.97l-7.16-17.03h-41.86l-7.2,17.03h-25.41ZM579.53,192.78l-12.76-29.76-12.8,29.76h25.56ZM623.56,228.26v-85.05h28.84l36.82,53.43v-53.43h22.69v85.05h-27.91l-37.76-54.83v54.83h-22.68ZM172.26,377.09v-85.05h74.02v19.02h-51.1v14.55h49.91v17.9h-49.91v15.11h51.1v18.46h-74.02ZM534.97,377.09v-85.05h74.02v19.02h-51.1v14.55h49.67v17.9h-49.67v15.11h51.1v18.46h-74.02ZM249.15,377.09l36.04-42-36.9-43.05h28.58l21.98,26.61,22.05-26.61h27.46l-36.42,42.52,36.11,42.52h-28.58l-21.34-26.19-20.82,26.19h-28.17ZM350.75,377.1v-85.04h50.11c20.56,0,32.57,12.42,32.57,28.6,0,19.54-15.31,29.58-35.52,29.58h-23.88v26.86h-23.28ZM399.18,311.29h-25.15v19.58h25.07c6.62,0,11.27-4.12,11.27-9.79,0-6.04-4.67-9.79-11.19-9.79ZM443.28,377.09v-85.05h50.48c16.73,0,31.71,9.69,31.71,27.59,0,15.3-12.64,25.15-24.89,26.12l29.85,31.33h-27.72l-27.2-30.21h-9.55v30.21h-22.68ZM491.89,311.07h-25.93v17.9h26.27c4.55,0,10.41-3.3,10.41-8.95,0-4.39-4.52-8.95-10.74-8.95ZM619.5,377.09v-18.46h45.4c6.72,0,9.63-3.4,9.63-7.13s-2.9-7.19-9.63-7.19h-20.52c-17.83,0-27.76-10.18-27.76-25.47,0-13.64,9.1-26.79,35.59-26.79h44.18l-9.55,19.14h-38.21c-7.3,0-9.55,3.59-9.55,7.02s2.78,7.41,8.36,7.41h21.49c19.88,0,28.5,10.57,28.5,24.41,0,14.88-9.61,27.07-29.59,27.07h-48.35ZM699.43,377.09v-18.46h45.4c6.72,0,9.63-3.4,9.63-7.13s-2.9-7.19-9.63-7.19h-20.51c-17.83,0-27.76-10.18-27.76-25.47,0-13.64,9.1-26.79,35.59-26.79h44.18l-9.55,19.14h-38.21c-7.3,0-9.55,3.59-9.55,7.02s2.78,7.41,8.36,7.41h21.49c19.88,0,28.5,10.57,28.5,24.41,0,14.88-9.61,27.07-29.59,27.07h-48.35Z"/>
    </g>
  </g>
</svg>