<?xml version="1.0" encoding="UTF-8"?>
<svg xmlns="http://www.w3.org/2000/svg" version="1.1" viewBox="0 0 800 533.33">
  <!-- Generator: Adobe Illustrator 28.7.9, SVG Export Plug-In . SVG Version: 1.2.0 Build 218)  -->
  <g>
    <g id="Layer_1">
      <path d="M746.67,533.33H53.33c-29.44,0-53.33-23.89-53.33-53.33V53.33C0,23.89,23.89,0,53.33,0h693.33c29.44,0,53.33,23.89,53.33,53.33v426.67c0,29.44-23.89,53.33-53.33,53.33ZM617.62,375.33v24.67c3.53.49,7.6.78,11.73.78h.36-.02c30.98,0,45.69-12.04,58.36-47.71l55.87-156.67h-32.31l-37.47,121.02h-.67l-37.47-121.02h-33.24l53.89,149.18-2.89,9.07c-1.96,12.2-12.42,21.4-25,21.4-.62,0-1.24-.02-1.87-.07h.09c-2.49-.11-7.38-.4-9.33-.64h-.02ZM126.96,178.98h-.58c-19.69.56-36.69,11.53-45.73,27.58l-.13.27c-18.76,32.27-6.82,81.64,13.93,111.71,9.73,14.22,20.4,28.13,34.47,28.13h.76c5.89-.38,11.33-1.91,16.24-4.38l-.24.11c5.93-2.98,12.91-4.73,20.29-4.8h.02c7.13.04,13.87,1.78,19.8,4.8l-.24-.11c4.78,2.49,10.4,4,16.38,4.13h.64c15.67-.29,25.49-14.67,34.18-27.33,6.2-8.98,11.33-19.31,14.93-30.36l.24-.84v-.22l-.4-.18c-17.33-7.89-29.18-25-29.29-44.91v-.02c.18-17.69,9.49-33.16,23.44-41.93l.2-.11.4-.27c-9.09-13.07-23.87-21.64-40.67-22.09h-2.42c-9.91.53-19.16,2.91-27.53,6.82l.47-.2c-3.82,1.87-8.27,3.22-12.96,3.8l-.2.02c-5.07-.56-9.69-1.93-13.91-4.02l.24.11c-6.51-3.16-14.13-5.22-22.16-5.76h-.18v.04ZM529.47,219.33c19.56,0,30.36,9.16,30.36,25.76v11.31l-39.69,2.36c-37.22,2.24-56.89,17.33-56.89,43.62.27,24.62,20.27,44.47,44.93,44.47,1.87,0,3.69-.11,5.49-.33l-.22.02c.42.02.93.02,1.44.02,19.31,0,36.2-10.4,45.36-25.93l.13-.24h.67v24.49h29.44v-101.91c0-29.56-23.58-48.62-60.07-48.62-33.64,0-58.67,19.29-59.67,45.84h28.67c3.2-12.2,14.11-21.04,27.09-21.04,1.04,0,2.09.07,3.11.18l-.13-.02-.02.04ZM311.11,140.09v204.8h31.8v-70.04h43.93c1.02.07,2.24.09,3.44.09,35.96,0,65.09-29.13,65.09-65.09,0-.91-.02-1.8-.04-2.69v.13c.04-.84.07-1.82.07-2.82,0-35.6-28.84-64.44-64.44-64.44-1.07,0-2.13.02-3.18.07h.16-76.82ZM205.62,124.44c-13.2,1.29-24.71,7.56-32.82,16.89l-.04.07c-7.4,8.29-11.91,19.29-11.91,31.33,0,1.04.04,2.09.11,3.11v-.13c.76,0,1.56.09,2.44.09,12.44-.71,23.36-6.67,30.62-15.71l.07-.09c7.27-8.6,11.69-19.8,11.69-32.07,0-1.22-.04-2.44-.13-3.67v.16l-.02.02ZM521.98,322.24c-16.84,0-27.76-8.11-27.76-20.64s10.44-20.38,30.22-21.56l35.33-2.22v11.58c-.78,18.4-15.89,33-34.4,33-1.2,0-2.38-.07-3.56-.18l.16.02ZM379.36,248.24h-36.53v-81.36h36.67c1.56-.22,3.36-.36,5.2-.36,21.13,0,38.27,17.13,38.27,38.27,0,.93-.04,1.89-.11,2.8v-.13c.07.8.09,1.76.09,2.71,0,21.2-17.2,38.4-38.4,38.4-1.82,0-3.64-.13-5.4-.38l.2.02.02.02Z"/>
    </g>
  </g>
</svg>