<?xml version="1.0" encoding="utf-8"?>
<!-- Generator: Adobe Illustrator 16.0.0, SVG Export Plug-In . SVG Version: 6.00 Build 0)  -->
<!DOCTYPE svg PUBLIC "-//W3C//DTD SVG 1.1//EN" "http://www.w3.org/Graphics/SVG/1.1/DTD/svg11.dtd">
<svg version="1.1" id="Layer_1" xmlns="http://www.w3.org/2000/svg" xmlns:xlink="http://www.w3.org/1999/xlink" x="0px" y="0px"
	 width="233.55px" height="384px" viewBox="0 0 233.55 384" enable-background="new 0 0 233.55 384" xml:space="preserve">
<g>
	<defs>
		<rect id="SVGID_1_" x="-819.09" y="-328" width="1920" height="1080"/>
	</defs>
	<clipPath id="SVGID_2_">
		<use xlink:href="#SVGID_1_"  overflow="visible"/>
	</clipPath>
	<path clip-path="url(#SVGID_2_)" fill="#FFFFFF" d="M183.498,64.587h-29.326c-5.5,0-10-6.151-10-13.668V19.864
		c0-7.517,4.5-13.668,10-13.668h29.326c5.5,0,10,6.151,10,13.668v51.449C193.498,78.831,188.998,64.587,183.498,64.587"/>
	<path clip-path="url(#SVGID_2_)" fill="none" stroke="#000000" stroke-width="9" stroke-miterlimit="10" d="M183.498,64.587
		h-29.326c-5.5,0-10-6.151-10-13.668V19.864c0-7.517,4.5-13.668,10-13.668h29.326c5.5,0,10,6.151,10,13.668v51.449
		C193.498,78.831,188.998,64.587,183.498,64.587z"/>
	<path clip-path="url(#SVGID_2_)" fill="#FFFFFF" d="M48.465,64.587h29.327c5.5,0,10-6.151,10-13.668V19.864
		c0-7.517-4.5-13.668-10-13.668H48.465c-5.5,0-10,6.151-10,13.668v51.449C38.465,78.831,42.965,64.587,48.465,64.587"/>
	<path clip-path="url(#SVGID_2_)" fill="none" stroke="#000000" stroke-width="9" stroke-miterlimit="10" d="M48.465,64.587h29.327
		c5.5,0,10-6.151,10-13.668V19.864c0-7.517-4.5-13.668-10-13.668H48.465c-5.5,0-10,6.151-10,13.668v51.449
		C38.465,78.831,42.965,64.587,48.465,64.587z"/>
</g>
<g>
	<defs>
		<rect id="SVGID_3_" x="-819.09" y="-328" width="1920" height="1080"/>
	</defs>
	<clipPath id="SVGID_4_">
		<use xlink:href="#SVGID_3_"  overflow="visible"/>
	</clipPath>
	<path clip-path="url(#SVGID_4_)" d="M233.509,220.601h-0.254c0-27.001,0.006-54.001-0.005-81.002
		c-0.002-4.167-0.05-8.334-0.116-12.5c-0.463-29.42-19.711-54.494-48.269-60.918c-10.07-2.265-20.841-1.494-31.299-1.921
		c-6.229-0.254-12.638,0.812-17.896-3.997c-1.011-0.925-2.771-1.436-4.19-1.443c-0.751-0.004-1.502-0.006-2.253-0.01l0.28-0.043
		c-9.299-0.391-18.62-0.343-27.932-0.293c-1.419,0.008-3.179,0.518-4.19,1.443c-5.258,4.81-11.667,3.743-17.896,3.997l1.089,0.249
		c-9.108-0.016-18.254-0.398-27.158,0.915C22.468,69.64,0.403,95.881,0.232,127.49c-0.28,51.667-0.285,103.335-0.288,155.003
		c-0.001,14.649-0.454,29.374,0.81,43.934c2.597,29.916,30.643,54.979,60.59,55.045c36.839,0.08,73.679,0.07,110.517-0.052
		c4.279-0.015,8.658-0.576,12.815-1.599c28.65-7.04,48.64-32.236,48.794-61.721C233.64,285.602,233.509,253.101,233.509,220.601
		 M219.484,255.357l-0.731,62.313c0.518,14.573-5.155,26.258-15.241,36.017c-9.676,9.36-21.481,13.632-34.847,13.646
		c-34.819,0.037-69.639,0.113-104.457-0.021c-24.612-0.095-44.426-16.549-49.202-40.614c-0.544-2.74-0.405-5.615-0.621-9.027
		l-0.539-62.178c0-2.265-0.003-3.384,0-4.503c0.111-41.005,0.107-82.01,0.376-123.013c0.162-24.76,16.905-45.28,40.824-48.917
		c10.448-1.589,21.283-0.782,31.943-0.806c27.339-0.064,54.679-0.007,82.02,0.046c28.611,0.055,49.896,21.036,50.097,49.793
		c0.283,40.836,0.267,81.675,0.379,122.513C219.487,251.868,219.484,253.131,219.484,255.357"/>
</g>
</svg>
