<?xml version="1.0" encoding="utf-8"?>
<!-- Generator: Adobe Illustrator 16.0.0, SVG Export Plug-In . SVG Version: 6.00 Build 0)  -->
<!DOCTYPE svg PUBLIC "-//W3C//DTD SVG 1.1//EN" "http://www.w3.org/Graphics/SVG/1.1/DTD/svg11.dtd">
<svg version="1.1" id="Layer_1" xmlns="http://www.w3.org/2000/svg" xmlns:xlink="http://www.w3.org/1999/xlink" x="0px" y="0px"
	 width="33.2px" height="21.9px" viewBox="0 0 33.2 21.9" enable-background="new 0 0 33.2 21.9" xml:space="preserve">
<path fill="#231F20" d="M22.285,14.26c0.508,0,1.014-0.008,1.52,0.002c0.445,0.009,0.738,0.294,0.754,0.71
	c0.018,0.429-0.281,0.769-0.737,0.774c-1.038,0.016-2.078,0.017-3.115,0.004c-0.449-0.006-0.757-0.354-0.736-0.778
	c0.018-0.415,0.315-0.703,0.758-0.71C21.247,14.254,21.766,14.26,22.285,14.26"/>
<path fill="#231F20" d="M16.785,0.365c4.415,0,8.829,0,13.244,0c1.793,0,2.919,1.126,2.919,2.925
	c0.002,5.202,0.001,10.403,0.001,15.604c-0.001,1.585-1.165,2.776-2.744,2.776c-8.948,0.004-17.896,0.006-26.847,0
	c-1.632-0.002-2.781-1.187-2.78-2.82C0.579,13.663,0.579,8.474,0.579,3.286c0-1.796,1.121-2.919,2.924-2.92
	C7.931,0.364,12.357,0.366,16.785,0.365 M2.073,8.974v0.431c0,3.121-0.001,6.242,0.001,9.362c0,0.957,0.467,1.416,1.427,1.416
	c8.829,0,17.658,0,26.487-0.001c1.019,0,1.465-0.441,1.465-1.457c0.001-3.094-0.007-6.188,0.011-9.282
	c0.002-0.398-0.124-0.477-0.497-0.477c-9.47,0.01-18.939,0.008-28.407,0.008H2.073z M2.081,4.51h29.371c0-0.424,0.002-0.809,0-1.195
	c-0.006-1.022-0.443-1.459-1.462-1.459H4.063c-0.28,0-0.56-0.009-0.839,0.007C2.615,1.897,2.124,2.35,2.089,2.95
	C2.058,3.454,2.081,3.961,2.081,4.51"/>
<path fill="#231F20" d="M9.385,17.983c-1.64,0.006-2.979-1.332-2.981-2.975c-0.002-1.645,1.333-2.988,2.969-2.991
	c1.654-0.002,2.992,1.317,3,2.957C12.381,16.646,11.06,17.978,9.385,17.983"/>
<path fill="#231F20" d="M7.204,12.235c-1.685,1.515-1.772,3.902-0.035,5.504c-0.812,0.527-2.308,0.212-3.154-0.665
	c-0.988-1.021-1.123-2.589-0.326-3.748C4.476,12.182,5.973,11.708,7.204,12.235"/>
<path fill="#231F20" d="M16.764,14.259c0.493,0,0.986-0.006,1.479,0.003c0.461,0.008,0.762,0.309,0.76,0.744
	c-0.001,0.434-0.301,0.739-0.767,0.743c-1.013,0.01-2.025,0.01-3.037,0.001c-0.472-0.004-0.774-0.3-0.784-0.73
	c-0.01-0.451,0.292-0.75,0.79-0.758C15.726,14.252,16.244,14.259,16.764,14.259"/>
<path fill="#231F20" d="M27.79,15.754c-0.492,0-0.985,0.01-1.479-0.002c-0.489-0.011-0.795-0.322-0.782-0.771
	c0.013-0.441,0.302-0.717,0.784-0.719c1.012-0.006,2.025-0.008,3.038,0c0.442,0.002,0.743,0.289,0.765,0.7
	c0.024,0.423-0.274,0.769-0.728,0.786C28.856,15.77,28.322,15.753,27.79,15.754L27.79,15.754z"/>
</svg>
