<?xml version="1.0" encoding="utf-8"?>
<!-- Generator: Adobe Illustrator 16.0.0, SVG Export Plug-In . SVG Version: 6.00 Build 0)  -->
<!DOCTYPE svg PUBLIC "-//W3C//DTD SVG 1.1//EN" "http://www.w3.org/Graphics/SVG/1.1/DTD/svg11.dtd">
<svg version="1.1" id="Layer_1" xmlns="http://www.w3.org/2000/svg" xmlns:xlink="http://www.w3.org/1999/xlink" x="0px" y="0px"
	 width="33.3px" height="32.9px" viewBox="0 0 33.3 32.9" enable-background="new 0 0 33.3 32.9" xml:space="preserve">
<path fill="#231F20" d="M0.616,16.591C0.622,7.725,7.781,0.563,16.625,0.575c8.857,0.012,16.001,7.177,15.989,16.036
	c-0.014,8.872-7.165,16.028-16.009,16.021C7.756,32.622,0.61,25.453,0.616,16.591 M16.806,31.664
	c8.222-0.062,14.906-6.895,14.848-15.171c-0.061-8.309-6.842-15.01-15.135-14.953C8.203,1.598,1.526,8.387,1.58,16.726
	C1.635,25.048,8.444,31.729,16.806,31.664"/>
<path fill="#231F20" d="M19.024,12.557c0.036,0.784,0.084,1.51,0.099,2.237c0.003,0.174-0.054,0.444-0.168,0.501
	c-0.14,0.071-0.4,0.018-0.554-0.073c-1.9-1.132-3.791-2.28-5.686-3.424c-0.093-0.057-0.188-0.113-0.277-0.176
	c-0.369-0.26-0.394-0.475-0.048-0.748c1.879-1.485,3.763-2.965,5.654-4.434c0.123-0.095,0.366-0.158,0.487-0.1
	c0.119,0.058,0.203,0.286,0.216,0.447c0.057,0.738,0.084,1.479,0.125,2.272c0.151,0,0.292,0.001,0.431,0
	c1.105-0.001,2.225-0.119,3.312,0.019c3.124,0.393,5.648,2.643,6.235,5.75c0.749,3.963-1.799,7.854-5.746,8.715
	c-0.658,0.145-1.328,0.174-1.981-0.033c-0.138-0.045-0.249-0.164-0.373-0.248c0.101-0.112,0.18-0.27,0.307-0.33
	c0.679-0.326,1.359-0.647,2.054-0.936c1.959-0.811,3.128-2.216,3.313-4.361c0.223-2.55-1.774-4.929-4.324-5.16
	c-0.387-0.034-0.776-0.055-1.165-0.041C20.317,12.457,19.702,12.512,19.024,12.557"/>
<path fill="#231F20" d="M11.663,26.692c-0.295-0.166-0.559-0.313-0.818-0.463c-1.453-0.838-2.903-1.684-4.362-2.512
	c-0.255-0.145-0.351-0.313-0.349-0.606c0.013-1.86,0.008-3.722,0.009-5.582c0-0.118,0.012-0.236,0.022-0.44
	c0.622,0.363,1.197,0.688,1.756,1.04c0.076,0.05,0.09,0.238,0.091,0.363c0.008,0.704,0.004,1.407,0.004,2.094
	c0.053,0.029,0.077,0.054,0.094,0.05c0.674-0.145,0.674-0.145,1.09,0.442c0.061,0.086,0.129,0.165,0.27,0.343v-2.422
	c0.768,0.448,1.46,0.844,2.14,1.258c0.072,0.043,0.11,0.19,0.11,0.29c0.004,1.994,0,3.989-0.003,5.983
	C11.716,26.563,11.694,26.597,11.663,26.692"/>
<path fill="#231F20" d="M17.989,17.134c0.009,0.162,0.021,0.269,0.021,0.375c0.002,1.884,0,3.769,0.006,5.654
	c0.001,0.224-0.042,0.383-0.258,0.508c-1.69,0.963-3.371,1.939-5.057,2.91c-0.059,0.035-0.126,0.057-0.231,0.104
	c-0.009-0.155-0.021-0.271-0.021-0.387c-0.002-1.873,0.003-3.745-0.009-5.618c-0.002-0.279,0.089-0.438,0.332-0.577
	c1.636-0.932,3.264-1.879,4.896-2.82C17.75,17.235,17.842,17.202,17.989,17.134 M13.646,21.985c0.057-0.006,0.085-0.001,0.103-0.012
	c0.728-0.436,1.444-0.887,2.182-1.305c0.29-0.166,0.404-0.354,0.283-0.701c-0.098,0.049-0.193,0.09-0.283,0.144
	c-0.674,0.405-1.34,0.826-2.023,1.216C13.625,21.486,13.534,21.675,13.646,21.985 M15.991,21.142
	c-0.479,0.291-0.915,0.576-1.371,0.822c-0.292,0.158-0.349,0.357-0.231,0.695c0.465-0.281,0.896-0.568,1.352-0.813
	C16.034,21.689,16.099,21.487,15.991,21.142 M14.919,23.322c0.813-0.271,1.095-0.562,1-1.036
	C15.104,22.56,14.82,22.854,14.919,23.322"/>
<path fill="#231F20" d="M9.722,18.3c0.95-0.551,1.82-1.055,2.69-1.559c0.873-0.504,1.748-1.002,2.614-1.516
	c0.193-0.116,0.341-0.115,0.531,0c0.593,0.357,1.195,0.696,1.793,1.044c0.082,0.047,0.152,0.11,0.268,0.195
	c-0.714,0.415-1.393,0.811-2.073,1.204c-1.05,0.608-2.104,1.21-3.147,1.828c-0.229,0.135-0.404,0.137-0.631-0.001
	C11.117,19.099,10.453,18.726,9.722,18.3"/>
<path fill="#231F20" d="M6.519,16.446c0.459-0.268,0.863-0.507,1.272-0.741c1.33-0.758,2.663-1.51,3.988-2.276
	c0.216-0.126,0.381-0.135,0.599-0.004c0.485,0.29,0.987,0.548,1.556,0.86c-0.579,0.339-1.075,0.632-1.576,0.922
	c-1.22,0.706-2.443,1.404-3.655,2.12c-0.252,0.149-0.446,0.156-0.695-0.004C7.54,17.024,7.052,16.759,6.519,16.446"/>
<path fill="#FFFFFF" d="M13.646,21.985c-0.11-0.31-0.021-0.498,0.263-0.658c0.682-0.39,1.348-0.811,2.021-1.217
	c0.09-0.053,0.188-0.094,0.283-0.144c0.122,0.348,0.007,0.536-0.283,0.702c-0.735,0.418-1.454,0.869-2.18,1.305
	C13.731,21.984,13.704,21.979,13.646,21.985"/>
<path fill="#FFFFFF" d="M15.991,21.142c0.106,0.346,0.043,0.549-0.251,0.705c-0.456,0.244-0.888,0.531-1.353,0.813
	c-0.117-0.338-0.059-0.537,0.232-0.695C15.077,21.718,15.513,21.433,15.991,21.142"/>
<path fill="#FFFFFF" d="M14.919,23.322c-0.099-0.469,0.186-0.763,1-1.036C16.014,22.761,15.732,23.052,14.919,23.322"/>
</svg>
