<?xml version="1.0" encoding="utf-8"?>
<!-- Generator: Adobe Illustrator 16.0.0, SVG Export Plug-In . SVG Version: 6.00 Build 0)  -->
<!DOCTYPE svg PUBLIC "-//W3C//DTD SVG 1.1//EN" "http://www.w3.org/Graphics/SVG/1.1/DTD/svg11.dtd">
<svg version="1.1" id="Layer_1" xmlns="http://www.w3.org/2000/svg" xmlns:xlink="http://www.w3.org/1999/xlink" x="0px" y="0px"
	 width="44.125px" height="45.25px" viewBox="0 0 44.125 45.25" enable-background="new 0 0 44.125 45.25" xml:space="preserve">
<path fill="#231F20" d="M43.446,22.963c0.003,11.928-9.596,21.633-21.387,21.625c-11.781-0.01-21.361-9.739-21.339-21.675
	C0.741,11.047,10.316,1.367,22.044,1.353C33.839,1.338,43.443,11.036,43.446,22.963 M6.268,10.937
	c-6.565,7.433-5.54,21.946,4.247,28.346c1.438-2.024,2.731-4.165,4.345-6.029c2.03-2.347,2.896-4.887,2.553-7.974
	c-0.197-1.779-0.036-3.598-0.036-5.537h-1.543c-2.362,0-4.726,0.016-7.089-0.008c-1.563-0.015-2.665-1.057-2.663-2.449
	c0.002-1.358,1.028-2.373,2.538-2.464c0.689-0.041,1.381-0.007,2.073-0.007c0.02-0.095,0.041-0.19,0.061-0.285
	C9.26,13.333,7.767,12.137,6.268,10.937 M33.804,39.174c9.771-6.64,10.362-20.793,4.399-27.784
	c-1.347,1.064-2.689,2.126-4.333,3.424c0.883,0,1.345-0.025,1.803,0.005c1.579,0.103,2.559,1.126,2.503,2.59
	c-0.055,1.397-1.05,2.307-2.612,2.327c-1.815,0.024-3.629,0.007-5.443,0.007h-2.843c0,2.775,0.062,5.342-0.025,7.905
	c-0.047,1.377,0.299,2.497,1.113,3.619C30.245,33.854,31.998,36.532,33.804,39.174 M19.567,14.861
	c-2.392-2.822-2.756-5.508-0.895-7.623c1.69-1.92,4.516-2.179,6.478-0.587c1.309,1.063,1.87,2.465,1.771,4.124
	c-0.096,1.625-0.978,2.849-2.296,3.826c0.125,0.125,0.25,0.251,0.375,0.376c3.32-2.416,6.641-4.832,9.985-7.267
	c-7.941-7.332-20.117-5.646-25.323-0.25c2.91,2.298,5.812,4.603,8.734,6.878C18.725,14.593,19.174,14.69,19.567,14.861
	 M15.901,16.308l-0.12,0.232c0.653,0.492,1.257,1.074,1.969,1.454c0.91,0.486,1.17,1.143,1.151,2.14
	c-0.07,3.622-0.058,7.244-0.075,10.866c-0.004,0.773-0.001,1.547-0.001,2.319c0.963-0.782,1.619-1.634,2.276-2.486
	c0.976-1.269,1.17-1.272,2.115-0.032c0.774,1.013,1.548,2.025,2.32,3.039c0.291-0.524,0.292-0.93,0.29-1.334
	c-0.017-4.212-0.021-8.425-0.065-12.637c-0.01-0.797,0.196-1.322,0.944-1.729c0.806-0.438,1.508-1.064,2.256-1.608
	c-0.053-0.075-0.104-0.15-0.155-0.225H15.901z M22.274,7.104c-1.772-0.031-3.333,1.495-3.353,3.275
	c-0.018,1.752,1.556,3.327,3.313,3.316c1.718-0.011,3.222-1.483,3.282-3.214C25.576,8.729,24.045,7.135,22.274,7.104 M23.213,33.155
	c-0.106,0.024-0.215,0.047-0.321,0.071c0,2.542,0.024,5.085-0.014,7.626c-0.016,1.021,0.29,1.626,1.41,1.6
	c1.108-0.024,1.597-0.58,1.545-1.678c-0.03-0.671-0.1-1.362,0.013-2.015C26.279,36.21,24.374,34.877,23.213,33.155 M21.485,33.229
	c-0.129-0.063-0.26-0.126-0.39-0.189c-0.751,1.168-1.843,2.251-2.166,3.528c-0.381,1.5-0.105,3.169-0.092,4.765
	c0.009,0.889,0.633,1.123,1.365,1.127c0.762,0.004,1.292-0.285,1.287-1.18C21.479,38.596,21.485,35.911,21.485,33.229
	 M28.143,14.463c0.025,0.14,0.053,0.279,0.081,0.419c1.136-0.102,2.44,0.117,3.372-0.375c1.693-0.895,3.203-2.165,4.698-3.391
	c0.312-0.255,0.222-0.997,0.315-1.514c-0.515-0.07-1.202-0.389-1.521-0.171C32.732,11.049,30.448,12.773,28.143,14.463
	 M16.492,14.653c-2.569-2.025-4.913-3.91-7.316-5.713c-0.253-0.19-0.86,0.095-1.305,0.161c0.076,0.519-0.037,1.252,0.264,1.52
	c1.22,1.086,2.638,1.95,3.845,3.047C13.229,14.805,14.605,15.009,16.492,14.653 M27.574,32.538c-0.136,0.04-0.273,0.08-0.411,0.119
	c0.084,1.229-0.146,2.601,0.329,3.652c0.645,1.419,1.788,2.626,2.817,3.84c0.219,0.26,1.056,0.365,1.27,0.17
	c0.298-0.272,0.531-1.056,0.352-1.34C30.538,36.794,29.039,34.678,27.574,32.538 M17.078,32.493
	c-1.529,2.142-3.091,4.259-4.55,6.446c-0.198,0.297,0.12,0.937,0.199,1.418c0.472-0.098,1.114-0.034,1.384-0.322
	c0.773-0.818,1.296-1.88,2.096-2.664C17.627,35.979,17.514,34.331,17.078,32.493 M15.447,18.325
	c-1.892-2.775-4.579-2.105-7.077-2.004c-0.302,0.012-0.877,0.776-0.797,1.018c0.133,0.403,0.682,0.927,1.075,0.943
	C10.869,18.371,13.097,18.325,15.447,18.325 M29.276,18.328c2.184,0,4.246,0.056,6.298-0.045c0.421-0.021,0.813-0.629,1.217-0.966
	c-0.303-0.351-0.579-0.978-0.911-1.008C33.495,16.09,31.059,15.847,29.276,18.328 M17.407,38.588
	c-0.104-0.035-0.208-0.069-0.311-0.104c-0.789,1.054-1.577,2.108-2.455,3.281c1.026,0.312,1.886,0.573,2.766,0.84V38.588z
	 M27.255,42.473c0.749-0.247,1.498-0.493,2.396-0.788c-0.798-1.039-1.463-1.904-2.127-2.771c-0.09,0.034-0.179,0.066-0.269,0.101
	V42.473z"/>
</svg>
