<?xml version="1.0" encoding="utf-8"?>
<!-- Generator: Adobe Illustrator 16.0.0, SVG Export Plug-In . SVG Version: 6.00 Build 0)  -->
<!DOCTYPE svg PUBLIC "-//W3C//DTD SVG 1.1//EN" "http://www.w3.org/Graphics/SVG/1.1/DTD/svg11.dtd">
<svg version="1.1" id="Layer_1" xmlns="http://www.w3.org/2000/svg" xmlns:xlink="http://www.w3.org/1999/xlink" x="0px" y="0px"
	 width="22.43px" height="22.341px" viewBox="0 0 22.43 22.341" enable-background="new 0 0 22.43 22.341" xml:space="preserve">
<path fill="#FFFFFF" d="M18.868,6.211c0-0.86,0-1.608,0-2.549c-1.951-0.108-3.771-0.531-5.427,0.958
	c-1.693,1.525-0.981,3.577-1.397,5.512c-0.798,0.126-1.606,0.256-2.558,0.409c0,0.895,0,1.78,0,2.707
	c0.9,0.312,1.755,0.608,2.609,0.903c0,2.571,0,5.012,0,7.629c-3.766,0-7.419,0-11.056,0C0.531,20.036,0.353,5.493,0.768,1.054
	C2.317,0.487,18.38,0.293,21.62,0.802c0.523,1.742,0.586,18.677,0.041,21.002c-1.777,0-3.596,0-5.412,0
	c-0.628-1.43-0.742-4.283-0.287-7.531c1.322-0.805,3.628-1.006,2.611-3.727c-0.748-0.104-1.569-0.215-2.37-0.326
	C15.204,7.507,15.675,6.749,18.868,6.211z"/>
</svg>
