<?xml version="1.0" encoding="utf-8"?>
<!-- Generator: Adobe Illustrator 23.0.1, SVG Export Plug-In . SVG Version: 6.00 Build 0)  -->
<svg version="1.1" id="Layer_1" xmlns="http://www.w3.org/2000/svg" xmlns:xlink="http://www.w3.org/1999/xlink" x="0px" y="0px"
	 viewBox="0 0 53 52" style="enable-background:new 0 0 53 52;" xml:space="preserve">
<style type="text/css">
	.st0{fill:#231F20;}
</style>
<g>
	<g>
		<path class="st0" d="M28.2,11.8V8.6l-1,2h-0.7l-1-2v3.1h-1V6.4h1l1.4,2.9l1.4-2.9h1v5.4H28.2z"/>
	</g>
	<g>
		<polygon class="st0" points="24.3,6.4 25,6.4 26.5,9.9 28,6.4 28.7,6.4 28.7,11.8 28,11.8 28,8.4 27.9,8.4 26.8,11 26.2,11 
			25.1,8.4 25.1,8.4 25.1,11.8 24.3,11.8 		"/>
	</g>
	<g>
		<path class="st0" d="M26.8,44v-1.3h-2.1v-0.9h2.1v-2.2h1v5.4h-3.5V44H26.8z"/>
	</g>
	<g>
		<polygon class="st0" points="28,44.9 24.6,44.9 24.6,44.2 27.2,44.2 27.2,42.6 25,42.6 25,41.9 27.2,41.9 27.2,39.6 28,39.6 		"/>
	</g>
	<path class="st0" d="M26.7,52c-14.4,0-26-11.6-26-26c0-14.4,11.6-26,25.9-26c14.5,0,26,11.6,26,26.1C52.6,40.4,41,52,26.7,52
		 M33.4,15.7c0-0.1,0-0.2,0-0.2c-0.1-0.6-0.2-1.2-0.3-1.7c-0.6-3-1.4-5.9-2.9-8.7C29.6,4,28.9,3,27.9,2.3c-1.2-0.8-2.3-0.8-3.5,0
		C23.4,3,22.8,4,22.2,5c-1.4,2.5-2.2,5.2-2.8,7.9c-0.2,0.9-0.3,1.7-0.5,2.6C23.8,16.2,28.6,16.2,33.4,15.7 M19,36.4
		c0,0.1,0,0.1,0,0.2c0.6,3.4,1.4,6.7,2.9,9.8c0.6,1.2,1.3,2.4,2.4,3.2c1.3,1,2.6,1.1,3.8,0c0.7-0.7,1.4-1.5,1.9-2.3
		c1.6-2.6,2.4-5.5,3-8.5c0.2-0.8,0.3-1.6,0.5-2.4C28.6,35.7,23.8,35.8,19,36.4 M18.6,34.7c1.7-0.1,3.2-0.3,4.7-0.4
		c3.3-0.2,6.6-0.1,9.9,0.3c0.3,0,0.4-0.1,0.4-0.4c0.1-1.8,0.3-3.6,0.4-5.4c0-0.6,0-1.3,0-2H18.1C18.3,29.5,18.4,32.1,18.6,34.7
		 M18.1,25.1h16.2c-0.2-2.6-0.4-5.2-0.5-7.7c-2.6,0.1-5.1,0.3-7.6,0.2c-2.5,0-5-0.2-7.6-0.4C18.4,19.9,18.3,22.5,18.1,25.1 M17,34.9
		c-0.2-2.6-0.4-5.3-0.6-8.1H8c-0.3,1.9,1,8.5,1.8,9.8C12.2,36.1,14.6,35.5,17,34.9 M17,17.1c-2.4-0.6-4.8-1.2-7.2-1.8
		c-1.1,3.1-1.8,6.4-1.8,9.8h8.5C16.6,22.4,16.8,19.7,17,17.1 M44.4,26.8h-8.5c-0.2,2.7-0.4,5.3-0.5,7.9c2.4,0.6,4.9,1.1,7.3,1.7
		C43.8,33.3,44.4,30.2,44.4,26.8 M35.4,17.2c0.2,2.6,0.4,5.2,0.5,7.9h8.5c-0.1-3.3-0.7-6.5-1.7-9.5C40.2,16.1,37.8,16.7,35.4,17.2
		 M30.4,49.6c5.7-2,9.2-6.2,11.7-11.7c-2.4-0.5-4.7-1-7-1.6C34.2,41.1,33.2,45.7,30.4,49.6 M42,14.1C40.8,9.4,33.9,2.6,30.4,2.4
		c2.8,3.9,3.8,8.5,4.7,13.2C37.4,15.1,39.7,14.6,42,14.1 M10.4,38.3c2.5,5.2,5.9,9.4,11.5,11.3c-1.4-1.9-2.4-4-3-6.2
		c-0.6-2.2-1.2-4.5-1.7-6.7C14.9,37,12.7,37.5,10.4,38.3 M17.2,15.4c0.6-2.4,1.1-4.7,1.8-6.9c0.6-2.2,1.6-4.3,3-6.2
		c-2.8,0.8-5.1,2.4-7.1,4.5c-1.9,2-3.3,4.2-4.5,6.9C12.7,14.3,15,14.9,17.2,15.4 M44.2,37c1.1,0.5,2.2,1.1,3.2,1.6
		c2.2-3.6,3.4-7.5,3.5-11.8h-4.9C46,30.4,45.4,33.7,44.2,37 M46.1,25.1H51c-0.2-4.3-1.3-8.2-3.5-11.7c-1.1,0.5-2.1,1-3.2,1.6
		C45.4,18.2,46,21.6,46.1,25.1 M2.3,26.8c0.2,4.3,1.3,8.2,3.5,11.8c0.8-0.4,1.6-0.8,2.4-1.2C7,34,6.4,30.5,6.2,26.8H2.3z M5.8,13.4
		C3.6,17,2.5,20.9,2.3,25.1h3.9c0.1-3.6,0.7-7.1,2-10.5C7.4,14.2,6.7,13.8,5.8,13.4 M43.6,38.6c-1.6,3.7-3.8,6.9-6.8,9.4
		c3.9-1.8,7.1-4.5,9.7-8C45.5,39.5,44.6,39.1,43.6,38.6 M46.6,12c-2.6-3.6-5.8-6.2-9.7-8c3,2.6,5.1,5.8,6.7,9.4
		C44.6,12.9,45.5,12.5,46.6,12 M8.9,13.1c1.3-3,3-5.6,5.2-7.9C11.2,6.9,8.8,9.1,6.8,12C7.5,12.3,8.2,12.7,8.9,13.1 M14.2,46.8
		c-2.2-2.3-4-4.9-5.3-7.9c-0.7,0.4-1.4,0.7-2.1,1.1C8.8,42.9,11.2,45.1,14.2,46.8"/>
</g>
</svg>
