<?xml version="1.0" encoding="UTF-8"?>
<svg xmlns="http://www.w3.org/2000/svg" version="1.1" viewBox="0 0 789.57 538.14">
  <defs>
    <style>
      .cls-1 {
        fill: #4285f4;
      }

      .cls-2 {
        fill: #fff;
        fill-rule: evenodd;
      }

      .cls-3 {
        fill: #34a853;
      }

      .cls-4 {
        fill: #fbbc04;
      }

      .cls-5 {
        fill: #ea4335;
      }

      .cls-6 {
        stroke: #fff;
        stroke-miterlimit: 10;
      }
    </style>
  </defs>
  <!-- Generator: Adobe Illustrator 28.7.9, SVG Export Plug-In . SVG Version: 1.2.0 Build 218)  -->
  <g>
    <g id="Layer_1">
      <rect class="cls-6" x=".5" y=".5" width="788.57" height="537.14" rx="62.86" ry="62.86"/>
      <path class="cls-2" d="M372.62,354.97v-69.05h35.64c14.6,0,26.93-4.89,36.98-14.54l2.41-2.45c18.36-19.98,17.15-51.11-2.41-69.59-9.78-9.79-23.18-15.09-36.98-14.82h-57.21v170.45h21.57ZM372.62,264.99v-59.53h36.18c7.77,0,15.14,2.99,20.64,8.43,11.66,11.42,11.93,30.45.67,42.27-5.49,5.85-13.27,9.11-21.31,8.84h-36.18ZM548.26,247.45c-9.24-8.56-21.84-12.91-37.78-12.91-20.5,0-35.91,7.61-46.09,22.7l19.03,12.1c6.97-10.33,16.48-15.49,28.54-15.49,7.64,0,15,2.85,20.77,8.02,5.63,4.89,8.84,11.96,8.84,19.44v5.03c-8.31-4.62-18.76-7.07-31.62-7.07-15.01,0-27.06,3.53-36.04,10.74-8.98,7.2-13.53,16.72-13.53,28.82-.27,11.01,4.42,21.48,12.73,28.54,8.44,7.61,19.16,11.42,31.75,11.42,14.87,0,26.66-6.66,35.64-19.98h.94v16.18h20.63v-71.91c0-15.09-4.56-27.05-13.8-35.61ZM489.72,333.49c-4.42-3.26-7.1-8.56-7.1-14.27,0-6.39,2.95-11.69,8.71-15.9,5.9-4.21,13.27-6.39,21.98-6.39,12.06-.14,21.44,2.58,28.14,8.02,0,9.24-3.62,17.26-10.72,24.06-6.43,6.52-15.14,10.19-24.25,10.19-6.03.14-11.93-1.9-16.75-5.71ZM608.42,406.21l72.08-167.87h-23.45l-33.36,83.73h-.4l-34.16-83.73h-23.45l47.29,109.15-26.8,58.72h22.24Z"/>
      <path class="cls-1" d="M298.15,270.97c0-6.66-.54-13.32-1.61-19.85h-90.97v37.65h52.12c-2.14,12.1-9.11,22.97-19.29,29.77v24.47h31.08c18.22-16.99,28.67-42.14,28.67-72.04Z"/>
      <path class="cls-3" d="M205.58,366.66c25.99,0,47.96-8.7,63.91-23.65l-31.08-24.47c-8.71,5.98-19.83,9.38-32.83,9.38-25.19,0-46.49-17.26-54.13-40.37h-32.02v25.28c16.35,33.03,49.71,53.83,86.15,53.83Z"/>
      <path class="cls-4" d="M151.45,287.55c-4.02-12.1-4.02-25.28,0-37.52v-25.15h-32.03c-13.8,27.59-13.8,60.22,0,87.81l32.03-25.15Z"/>
      <path class="cls-5" d="M205.58,209.66c13.8-.27,27.06,5.03,36.98,14.68l27.6-28c-17.55-16.58-40.6-25.69-64.58-25.42-36.44,0-69.8,20.93-86.15,53.96l32.02,25.28c7.64-23.24,28.94-40.51,54.13-40.51Z"/>
    </g>
  </g>
</svg>