<?xml version="1.0" encoding="utf-8"?>
<!-- Generator: Adobe Illustrator 16.0.0, SVG Export Plug-In . SVG Version: 6.00 Build 0)  -->
<!DOCTYPE svg PUBLIC "-//W3C//DTD SVG 1.1//EN" "http://www.w3.org/Graphics/SVG/1.1/DTD/svg11.dtd">
<svg version="1.1" id="Layer_1" xmlns="http://www.w3.org/2000/svg" xmlns:xlink="http://www.w3.org/1999/xlink" x="0px" y="0px"
	 width="22.341px" height="22.252px" viewBox="0 0 22.341 22.252" enable-background="new 0 0 22.341 22.252" xml:space="preserve">
<g>
	<path fill="#FFFFFF" d="M11.34,0.638c1.922,0,3.848-0.063,5.768,0.016c2.852,0.115,4.703,1.878,4.783,4.753
		c0.109,3.844,0.1,7.693-0.008,11.536c-0.073,2.618-2.461,4.923-5.076,4.977c-3.615,0.076-7.234,0.084-10.847-0.006
		c-2.916-0.072-5.31-2.563-5.359-5.498c-0.06-3.539-0.06-7.078-0.006-10.617c0.042-2.889,2.276-5.086,5.206-5.176
		c1.845-0.057,3.693-0.01,5.54-0.01C11.34,0.62,11.34,0.629,11.34,0.638z M2.469,11.237c-0.026,0-0.053,0-0.08,0
		c0,0.693-0.011,1.389,0.003,2.082c0.019,0.924,0.04,1.85,0.091,2.773c0.114,2.128,1.403,3.697,3.544,3.778
		c3.614,0.139,7.239,0.101,10.855-0.024c1.574-0.055,2.814-0.943,2.984-2.671c0.225-2.285,0.425-4.583,0.43-6.876
		c0.004-1.836-0.225-3.682-0.488-5.504c-0.194-1.35-1.086-2.06-2.488-2.274C13.563,1.942,9.82,1.818,6.063,2.47
		c-2.48,0.43-3.515,1.586-3.586,4.143C2.433,8.153,2.469,9.695,2.469,11.237z"/>
	<path fill="#FFFFFF" d="M18.702,11.152c-0.051,3.546-3.495,5.792-6.481,5.567c-4.051-0.307-6.242-2.207-6.343-5.955
		C5.8,7.854,8.954,5.228,12.209,5.218C15.755,5.209,18.741,7.938,18.702,11.152z M16.505,11.173c0.357-1.939-2.04-4.016-3.971-3.921
		c-2.56,0.124-4.427,0.902-4.36,3.673c0.061,2.518,1.584,3.963,4.421,3.992C14.484,14.936,16.467,13.038,16.505,11.173z"/>
	<path fill="#FFFFFF" d="M18.702,5.218c-0.781,0.539-1.184,0.985-1.668,1.106c-0.588,0.148-0.973-0.217-1.021-0.911
		c-0.063-0.859,0.455-1.146,1.113-1.08C17.55,4.376,17.936,4.77,18.702,5.218z"/>
</g>
</svg>
