<?xml version="1.0" encoding="utf-8"?>
<!-- Generator: Adobe Illustrator 16.0.0, SVG Export Plug-In . SVG Version: 6.00 Build 0)  -->
<!DOCTYPE svg PUBLIC "-//W3C//DTD SVG 1.1//EN" "http://www.w3.org/Graphics/SVG/1.1/DTD/svg11.dtd">
<svg version="1.1" id="Layer_1" xmlns="http://www.w3.org/2000/svg" xmlns:xlink="http://www.w3.org/1999/xlink" x="0px" y="0px"
	 width="31px" height="35px" viewBox="0 0 31 35" enable-background="new 0 0 31 35" xml:space="preserve">
<path fill="#231F20" d="M30.382,8.109c0.055,4.873-0.55,9.636-2.5,14.16c-2.394,5.553-6.462,9.48-11.828,12.123
	c-0.332,0.164-0.916,0.068-1.277-0.115C7.434,30.584,3.115,24.59,1.449,16.609C0.651,12.774,0.553,8.891,0.693,4.992
	c0.022-0.643,0.24-0.927,0.885-1.066c4.447-0.955,8.882-1.956,13.327-2.919c0.411-0.089,0.876-0.086,1.287,0.003
	c4.443,0.962,8.881,1.964,13.327,2.917c0.654,0.141,0.886,0.442,0.871,1.076C30.365,6.038,30.382,7.074,30.382,8.109 M28.176,8.72
	c0-0.565-0.048-1.135,0.013-1.694c0.088-0.824-0.267-1.133-1.056-1.299c-3.592-0.755-7.169-1.579-10.756-2.356
	c-0.449-0.097-0.949-0.16-1.388-0.066C11.217,4.117,7.457,4.98,3.686,5.796c-0.564,0.122-0.777,0.35-0.781,0.933
	c-0.034,3.463,0.179,6.9,0.987,10.282c1.554,6.502,5.066,11.547,11.019,14.754c0.316,0.17,0.87,0.213,1.17,0.051
	c3.378-1.819,6.171-4.287,8.189-7.586C27.185,19.466,28.044,14.185,28.176,8.72"/>
<path fill="#231F20" d="M6.466,14.211c0.735-0.642,1.392-1.213,2.296-2.002c0.157,0.287,0.255,0.566,0.434,0.773
	c1.436,1.66,2.907,3.291,4.326,4.963c0.524,0.619,0.875,0.619,1.388-0.021c2.415-3.006,4.865-5.985,7.302-8.973
	c0.276-0.337,0.559-0.667,0.905-1.084c0.749,0.601,1.447,1.159,2.249,1.803c-0.625,0.771-1.224,1.516-1.829,2.257
	c-2.694,3.305-5.385,6.611-8.086,9.912c-0.896,1.097-1.387,1.102-2.319,0.041c-2.05-2.331-4.095-4.665-6.14-7
	C6.829,14.695,6.686,14.492,6.466,14.211"/>
</svg>
