<?xml version="1.0" encoding="utf-8"?>
<!-- Generator: Adobe Illustrator 16.0.0, SVG Export Plug-In . SVG Version: 6.00 Build 0)  -->
<!DOCTYPE svg PUBLIC "-//W3C//DTD SVG 1.1//EN" "http://www.w3.org/Graphics/SVG/1.1/DTD/svg11.dtd">
<svg version="1.1" id="Layer_1" xmlns="http://www.w3.org/2000/svg" xmlns:xlink="http://www.w3.org/1999/xlink" x="0px" y="0px"
	 width="95.25px" height="28.5px" viewBox="0 0 95.25 28.5" enable-background="new 0 0 95.25 28.5" xml:space="preserve">
<g>
	<path d="M4.394,16.708c0.086,0.728,0.274,1.243,0.562,1.549c0.509,0.546,1.45,0.818,2.824,0.818c0.807,0,1.448-0.12,1.924-0.359
		c0.475-0.239,0.713-0.598,0.713-1.075c0-0.459-0.192-0.808-0.575-1.048c-0.382-0.237-1.808-0.648-4.275-1.232
		c-1.777-0.44-3.028-0.989-3.755-1.649c-0.726-0.65-1.089-1.587-1.089-2.811c0-1.444,0.567-2.685,1.703-3.722
		c1.135-1.037,2.733-1.555,4.793-1.555c1.954,0,3.547,0.389,4.778,1.168c1.231,0.78,1.938,2.125,2.12,4.037H10.03
		c-0.058-0.526-0.206-0.941-0.446-1.247C9.133,9.027,8.366,8.749,7.283,8.749c-0.891,0-1.526,0.138-1.905,0.416
		C4.999,9.442,4.81,9.767,4.81,10.14c0,0.469,0.201,0.808,0.604,1.018c0.403,0.22,1.825,0.598,4.267,1.133
		c1.628,0.383,2.849,0.961,3.662,1.735c0.803,0.784,1.204,1.765,1.204,2.939c0,1.55-0.577,2.814-1.731,3.794
		c-1.155,0.979-2.939,1.471-5.353,1.471c-2.462,0-4.28-0.52-5.453-1.557c-1.174-1.037-1.761-2.359-1.761-3.966H4.394z"/>
	<path d="M19.204,24.696l0.516,0.029c0.402,0.019,0.784,0.004,1.148-0.043c0.363-0.048,0.669-0.158,0.918-0.33
		c0.238-0.163,0.461-0.502,0.666-1.019c0.206-0.516,0.294-0.832,0.266-0.946l-5.744-16.32h4.546l3.413,11.53l3.227-11.53h4.345
		l-5.359,15.374c-1.035,2.963-1.855,4.801-2.457,5.514c-0.604,0.713-1.809,1.068-3.618,1.068c-0.364,0-0.656-0.002-0.876-0.007
		c-0.22-0.005-0.551-0.021-0.991-0.05V24.696z"/>
	<path d="M55.453,6.125c0.67,0.268,1.276,0.736,1.821,1.406c0.44,0.544,0.736,1.213,0.89,2.007c0.096,0.526,0.144,1.296,0.144,2.309
		l-0.028,9.853h-4.188v-9.953c0-0.593-0.095-1.08-0.286-1.463c-0.364-0.727-1.033-1.09-2.008-1.09c-1.129,0-1.908,0.468-2.338,1.405
		c-0.221,0.498-0.33,1.095-0.33,1.793v9.308h-4.116v-9.308c0-0.927-0.095-1.601-0.286-2.022c-0.345-0.755-1.018-1.133-2.022-1.133
		c-1.167,0-1.951,0.378-2.353,1.133c-0.219,0.43-0.329,1.071-0.329,1.922v9.407h-4.145V6.096h3.973v2.28
		c0.506-0.813,0.984-1.391,1.434-1.735c0.793-0.612,1.821-0.918,3.083-0.918c1.195,0,2.16,0.263,2.897,0.789
		C47.857,7,48.307,7.626,48.613,8.391c0.534-0.918,1.199-1.592,1.993-2.022c0.841-0.431,1.778-0.646,2.81-0.646
		C54.105,5.723,54.785,5.856,55.453,6.125"/>
	<path d="M76.238,7.745c1.275,1.348,1.912,3.327,1.912,5.937c0,2.753-0.623,4.852-1.869,6.296c-1.246,1.443-2.851,2.164-4.813,2.164
		c-1.251,0-2.29-0.31-3.117-0.932c-0.453-0.344-0.896-0.846-1.328-1.505v8.146h-4.044V6.067h3.915v2.309
		c0.442-0.679,0.914-1.214,1.414-1.605c0.914-0.698,2.001-1.047,3.263-1.047C73.408,5.723,74.963,6.397,76.238,7.745 M73.102,10.685
		c-0.555-0.927-1.456-1.391-2.702-1.391c-1.497,0-2.526,0.703-3.086,2.108c-0.29,0.745-0.435,1.692-0.435,2.84
		c0,1.816,0.488,3.092,1.463,3.828c0.578,0.431,1.265,0.646,2.057,0.646c1.15,0,2.026-0.439,2.631-1.319
		c0.604-0.879,0.905-2.051,0.905-3.513C73.935,12.678,73.656,11.612,73.102,10.685"/>
	<rect x="82.146" y="0.561" width="4.088" height="21.139"/>
	<path d="M93.943,1.394c0.553,0.557,0.829,1.235,0.829,2.035c0,0.826-0.287,1.515-0.862,2.065c-0.576,0.549-1.244,0.825-2.007,0.825
		c-0.845,0-1.538-0.286-2.078-0.859c-0.541-0.572-0.811-1.239-0.811-2.002c0-0.814,0.284-1.5,0.853-2.06
		c0.569-0.56,1.248-0.839,2.036-0.839C92.711,0.56,93.391,0.838,93.943,1.394 M90.734,4.598c0.324,0.324,0.713,0.486,1.168,0.486
		c0.438,0,0.82-0.161,1.146-0.482c0.326-0.32,0.49-0.711,0.49-1.172c0-0.442-0.16-0.827-0.481-1.149
		c-0.321-0.325-0.706-0.487-1.155-0.487s-0.837,0.16-1.164,0.48c-0.326,0.321-0.49,0.713-0.49,1.173
		C90.248,3.891,90.41,4.273,90.734,4.598"/>
</g>
</svg>
