<?xml version="1.0" encoding="UTF-8"?>
<svg xmlns="http://www.w3.org/2000/svg" version="1.1" viewBox="0 0 800 512.82">
  <defs>
    <style>
      .cls-1 {
        fill: #fff;
      }

      .cls-2 {
        fill: #ee9f2d;
      }

      .cls-3 {
        fill: #16366f;
      }

      .cls-4 {
        fill: #d9222a;
      }
    </style>
  </defs>
  <!-- Generator: Adobe Illustrator 28.7.9, SVG Export Plug-In . SVG Version: 1.2.0 Build 218)  -->
  <g>
    <g id="Layer_1">
      <path class="cls-3" d="M41.03,0h717.95c22.66,0,41.03,18.37,41.03,41.03v430.77c0,22.66-18.37,41.03-41.03,41.03H41.03c-22.66,0-41.03-18.37-41.03-41.03V41.03C0,18.37,18.37,0,41.03,0Z"/>
      <path class="cls-4" d="M460.52,256.41c0,101.69-82.43,184.1-184.11,184.1s-184.1-82.42-184.1-184.1,82.42-184.1,184.1-184.1,184.11,82.43,184.11,184.1"/>
      <path class="cls-2" d="M523.58,72.3c-47.57,0-90.92,18.05-123.59,47.66-6.66,6.04-12.87,12.55-18.59,19.48h37.2c5.09,6.19,9.78,12.71,14.04,19.5h-65.27c-3.93,6.28-7.47,12.79-10.61,19.5h86.47c2.97,6.34,5.57,12.85,7.79,19.49h-102.06c-2.14,6.39-3.93,12.9-5.35,19.5h112.76c2.76,12.81,4.15,25.88,4.14,38.98,0,20.45-3.34,40.12-9.49,58.48h-102.06c2.22,6.65,4.82,13.15,7.79,19.5h86.48c-3.14,6.71-6.69,13.22-10.61,19.5h-65.26c4.26,6.8,8.95,13.31,14.04,19.48h37.19c-5.71,6.95-11.93,13.46-18.59,19.5,32.68,29.61,76.02,47.65,123.59,47.65,101.68,0,184.11-82.42,184.11-184.1s-82.43-184.1-184.11-184.1"/>
      <path d="M683.16,359.04c0-3.28,2.66-5.95,5.94-5.95s5.94,2.67,5.94,5.95-2.66,5.95-5.94,5.95c-3.28,0-5.95-2.66-5.94-5.95ZM689.1,363.56c2.5,0,4.52-2.03,4.52-4.52,0-2.5-2.02-4.52-4.52-4.52h0c-2.49,0-4.51,2.01-4.52,4.5h0c0,2.51,2.02,4.53,4.51,4.53,0,0,0,0,0,0ZM688.3,361.65h-1.22v-5.22h2.2c.46,0,.93,0,1.34.26.42.29.66.79.66,1.31,0,.58-.35,1.13-.91,1.35l.96,2.31h-1.35l-.8-2.07h-.89v2.07h0ZM688.3,358.69h.67c.25,0,.52.02.74-.1.2-.13.3-.37.3-.6,0-.2-.12-.43-.3-.53-.21-.13-.55-.1-.78-.1h-.65v1.33h0ZM233.43,276.57c-2.1-.24-3.02-.31-4.46-.31-11.33,0-17.06,3.89-17.06,11.56,0,4.73,2.8,7.74,7.17,7.74,8.14,0,14.01-7.75,14.36-18.99ZM247.96,310.41h-16.56l.38-7.87c-5.05,6.22-11.79,9.18-20.95,9.18-10.83,0-18.26-8.46-18.26-20.75,0-18.49,12.92-29.27,35.09-29.27,2.26,0,5.17.21,8.14.58.62-2.5.78-3.58.78-4.92,0-5.03-3.48-6.91-12.82-6.91-9.78-.11-17.84,2.33-21.15,3.42.21-1.26,2.77-17.09,2.77-17.09,9.96-2.92,16.53-4.02,23.92-4.02,17.16,0,26.25,7.7,26.24,22.27.03,3.9-.61,8.72-1.62,15.05-1.74,11.01-5.46,34.58-5.97,40.33h0ZM184.21,310.41h-19.99l11.45-71.79-25.56,71.79h-13.62l-1.68-71.38-12.03,71.38h-18.71l15.63-93.39h28.74l1.74,52.27,17.53-52.27h31.97l-15.46,93.39M548.29,276.57c-2.09-.24-3.02-.31-4.45-.31-11.32,0-17.06,3.89-17.06,11.56,0,4.73,2.8,7.74,7.16,7.74,8.14,0,14.01-7.75,14.35-18.99ZM562.84,310.41h-16.56l.37-7.87c-5.05,6.22-11.79,9.18-20.94,9.18-10.84,0-18.26-8.46-18.26-20.75,0-18.49,12.91-29.27,35.09-29.27,2.26,0,5.17.21,8.14.58.62-2.5.78-3.58.78-4.92,0-5.03-3.48-6.91-12.82-6.91-9.78-.11-17.83,2.33-21.16,3.42.21-1.26,2.78-17.09,2.78-17.09,9.96-2.92,16.53-4.02,23.91-4.02,17.17,0,26.26,7.7,26.24,22.27.03,3.9-.61,8.72-1.62,15.05-1.73,11.01-5.46,34.58-5.96,40.33h0ZM336.8,309.26c-5.47,1.72-9.74,2.46-14.36,2.46-10.22,0-15.79-5.87-15.79-16.68-.15-3.35,1.47-12.18,2.74-20.24,1.15-7.09,8.67-51.83,8.67-51.83h19.87l-2.32,11.5h12l-2.71,18.25h-12.04c-2.31,14.44-5.59,32.44-5.63,34.82,0,3.91,2.09,5.62,6.84,5.62,2.28,0,4.04-.23,5.39-.72l-2.64,16.82M397.71,308.64c-6.82,2.09-13.41,3.09-20.39,3.08-22.24-.02-33.83-11.64-33.83-33.88,0-25.96,14.75-45.07,34.77-45.07,16.38,0,26.84,10.7,26.84,27.48,0,5.57-.72,11-2.45,18.68h-39.56c-1.34,11.02,5.71,15.61,17.27,15.61,7.11,0,13.53-1.47,20.66-4.78l-3.3,18.89ZM386.55,263.62c.11-1.58,2.11-13.56-9.24-13.56-6.33,0-10.85,4.82-12.7,13.56h21.94ZM259.96,258.47c0,9.61,4.66,16.23,15.22,21.21,8.09,3.8,9.35,4.93,9.35,8.38,0,4.74-3.57,6.87-11.48,6.87-5.96,0-11.51-.93-17.91-2.99,0,0-2.63,16.74-2.75,17.54,4.54.99,8.59,1.91,20.8,2.25,21.09,0,30.83-8.03,30.83-25.38,0-10.44-4.08-16.56-14.09-21.16-8.38-3.85-9.34-4.71-9.34-8.25,0-4.11,3.32-6.2,9.78-6.2,3.92,0,9.28.42,14.36,1.14l2.85-17.62c-5.18-.82-13.02-1.48-17.59-1.48-22.36,0-30.1,11.68-30.03,25.7M494.93,234.76c5.55,0,10.73,1.46,17.86,5.05l3.27-20.27c-2.93-1.15-13.23-7.9-21.97-7.9-13.38,0-24.68,6.64-32.64,17.59-11.6-3.84-16.37,3.92-22.21,11.66l-5.19,1.21c.39-2.55.75-5.08.63-7.64h-18.35c-2.51,23.5-6.95,47.31-10.43,70.85l-.91,5.1h20c3.34-21.69,5.17-35.57,6.28-44.97l7.53-4.19c1.12-4.18,4.65-5.6,11.71-5.43-.95,5.14-1.42,10.35-1.42,15.57,0,24.85,13.41,40.32,34.92,40.32,5.54,0,10.3-.73,17.66-2.73l3.52-21.29c-6.63,3.26-12.06,4.8-16.99,4.8-11.62,0-18.65-8.58-18.65-22.75,0-20.56,10.46-34.98,25.38-34.98"/>
      <path class="cls-1" d="M189.96,304.86h-19.99l11.46-71.78-25.56,71.78h-13.62l-1.68-71.37-12.03,71.37h-18.71l15.63-93.38h28.74l.81,57.81,19.39-57.81h31.04l-15.46,93.38"/>
      <path d="M664.12,217.03l-4.43,26.98c-5.47-7.19-11.34-12.4-19.09-12.4-10.09,0-19.27,7.65-25.27,18.9-8.37-1.74-17.02-4.68-17.02-4.68v.07c.67-6.29.94-10.13.88-11.43h-18.36c-2.5,23.5-6.94,47.31-10.42,70.85l-.92,5.1h19.99c2.7-17.54,4.77-32.1,6.29-43.64,6.83-6.17,10.25-11.56,17.15-11.2-3.06,7.39-4.85,15.9-4.85,24.63,0,18.99,9.61,31.51,24.14,31.51,7.32,0,12.94-2.53,18.43-8.38l-.94,7.06h18.91l15.22-93.38h-19.71ZM639.13,292.86c-6.8,0-10.24-5.03-10.24-14.97,0-14.93,6.43-25.51,15.5-25.51,6.87,0,10.58,5.23,10.58,14.88,0,15.06-6.53,25.6-15.85,25.6h0Z"/>
      <path class="cls-1" d="M239.17,271.04c-2.09-.24-3.02-.31-4.46-.31-11.33,0-17.06,3.89-17.06,11.56,0,4.72,2.8,7.74,7.16,7.74,8.15,0,14.02-7.75,14.36-18.99ZM253.71,304.87h-16.56l.38-7.86c-5.05,6.21-11.79,9.18-20.94,9.18-10.84,0-18.26-8.46-18.26-20.75,0-18.49,12.91-29.27,35.09-29.27,2.27,0,5.17.21,8.14.59.62-2.5.78-3.58.78-4.93,0-5.03-3.48-6.9-12.82-6.9-9.78-.11-17.84,2.33-21.16,3.41.21-1.26,2.77-17.06,2.77-17.06,9.96-2.93,16.53-4.03,23.92-4.03,17.17,0,26.26,7.71,26.24,22.26.03,3.92-.62,8.73-1.62,15.05-1.73,11-5.46,34.59-5.96,40.33h0ZM521.79,214l-3.27,20.27c-7.13-3.59-12.31-5.05-17.85-5.05-14.92,0-25.38,14.42-25.38,34.98,0,14.18,7.03,22.75,18.65,22.75,4.92,0,10.35-1.53,16.98-4.8l-3.51,21.28c-7.37,2.01-12.12,2.74-17.67,2.74-21.51,0-34.92-15.47-34.92-40.32,0-33.38,18.52-56.72,45.01-56.72,8.73,0,19.04,3.7,21.97,4.85M554.04,271.04c-2.09-.24-3.02-.31-4.46-.31-11.33,0-17.06,3.89-17.06,11.56,0,4.72,2.8,7.74,7.16,7.74,8.14,0,14.01-7.75,14.35-18.99ZM568.58,304.87h-16.56l.38-7.86c-5.05,6.21-11.79,9.18-20.94,9.18-10.83,0-18.26-8.46-18.26-20.75,0-18.49,12.92-29.27,35.09-29.27,2.27,0,5.17.21,8.14.59.62-2.5.78-3.58.78-4.93,0-5.03-3.48-6.9-12.82-6.9-9.78-.11-17.84,2.33-21.16,3.41.21-1.26,2.77-17.06,2.77-17.06,9.96-2.93,16.53-4.03,23.91-4.03,17.17,0,26.26,7.71,26.24,22.26.03,3.92-.61,8.73-1.62,15.05-1.73,11-5.46,34.59-5.96,40.33h0ZM342.54,303.71c-5.47,1.72-9.74,2.47-14.36,2.47-10.22,0-15.79-5.87-15.79-16.68-.14-3.37,1.47-12.19,2.74-20.24,1.15-7.1,8.66-51.83,8.66-51.83h19.86l-2.32,11.5h10.2l-2.71,18.24h-10.23c-2.31,14.45-5.6,32.43-5.64,34.82,0,3.93,2.09,5.62,6.84,5.62,2.28,0,4.04-.22,5.39-.71l-2.65,16.81M403.46,303.11c-6.82,2.09-13.42,3.09-20.39,3.08-22.24-.02-33.83-11.64-33.83-33.88,0-25.97,14.75-45.08,34.77-45.08,16.38,0,26.84,10.7,26.84,27.49,0,5.57-.72,11.01-2.44,18.68h-39.56c-1.34,11.02,5.71,15.61,17.27,15.61,7.11,0,13.53-1.47,20.65-4.8l-3.3,18.9h0ZM392.29,258.07c.12-1.58,2.11-13.56-9.24-13.56-6.32,0-10.85,4.84-12.69,13.56h21.94ZM265.7,252.94c0,9.61,4.66,16.22,15.22,21.21,8.09,3.8,9.35,4.94,9.35,8.38,0,4.74-3.57,6.87-11.47,6.87-5.97,0-11.51-.93-17.91-2.99,0,0-2.62,16.74-2.74,17.54,4.53.99,8.59,1.9,20.79,2.25,21.09,0,30.83-8.03,30.83-25.38,0-10.44-4.07-16.56-14.09-21.17-8.38-3.85-9.35-4.7-9.35-8.25,0-4.1,3.33-6.21,9.79-6.21,3.92,0,9.28.43,14.36,1.15l2.84-17.62c-5.17-.82-13.02-1.48-17.59-1.48-22.36,0-30.1,11.67-30.03,25.71M674.37,304.87h-18.91l.94-7.07c-5.48,5.86-11.1,8.39-18.43,8.39-14.53,0-24.13-12.53-24.13-31.51,0-25.26,14.89-46.56,32.52-46.56,7.75,0,13.62,3.17,19.08,10.35l4.44-26.98h19.71l-15.22,93.38h0ZM644.89,287.32c9.31,0,15.85-10.55,15.85-25.59,0-9.65-3.72-14.88-10.59-14.88-9.06,0-15.5,10.58-15.5,25.51,0,9.93,3.44,14.96,10.25,14.96ZM586.59,228.93c-2.5,23.5-6.95,47.31-10.42,70.83l-.91,5.1h19.99c7.15-46.44,8.88-55.5,20.09-54.37,1.79-9.5,5.11-17.83,7.59-22.03-8.37-1.74-13.05,2.99-19.17,11.97.48-3.88,1.37-7.66,1.19-11.51h-18.36M422.05,228.93c-2.51,23.5-6.95,47.31-10.43,70.83l-.91,5.1h20c7.14-46.44,8.87-55.5,20.07-54.37,1.79-9.5,5.12-17.83,7.59-22.03-8.36-1.74-13.04,2.99-19.16,11.97.48-3.88,1.36-7.66,1.19-11.51h-18.36M683.15,298.92c0-3.3,2.66-5.95,5.94-5.95,3.28,0,5.94,2.65,5.94,5.93v.02c0,3.28-2.66,5.94-5.94,5.94-3.28,0-5.94-2.66-5.94-5.94h0ZM689.1,303.44c2.49,0,4.52-2.02,4.52-4.51h0c0-2.5-2.02-4.52-4.51-4.52h0c-2.5,0-4.52,2.02-4.52,4.52,0,2.49,2.03,4.52,4.52,4.52h0ZM688.29,301.52h-1.22v-5.21h2.21c.46,0,.93,0,1.33.26.43.29.67.79.67,1.31,0,.59-.35,1.14-.91,1.35l.97,2.29h-1.35l-.8-2.06h-.89v2.06h0ZM688.29,298.57h.67c.25,0,.53.02.75-.1.2-.13.3-.37.3-.6,0-.22-.12-.41-.29-.54-.21-.12-.56-.09-.78-.09h-.65v1.33h0Z"/>
    </g>
  </g>
</svg>