<?xml version="1.0" encoding="utf-8"?>
<!-- Generator: Adobe Illustrator 23.1.1, SVG Export Plug-In . SVG Version: 6.00 Build 0)  -->
<svg version="1.1" id="Layer_1" xmlns="http://www.w3.org/2000/svg" xmlns:xlink="http://www.w3.org/1999/xlink" x="0px" y="0px"
	 viewBox="0 0 191.82 191.82" style="enable-background:new 0 0 191.82 191.82;" xml:space="preserve">
<style type="text/css">
	.st0{stroke:#000000;stroke-width:5;stroke-miterlimit:10;}
	.st1{fill:none;stroke:#010101;stroke-width:9;stroke-miterlimit:10;}
</style>
<g>
	<path class="st0" d="M95.78,149.67c-11.1-0.01-22.19,0.03-33.29-0.03c-8.84-0.04-11.96-4.07-9.92-12.94
		c5.16-22.45,22.14-38.46,42.25-39.17c20.13-0.72,37.63,14.25,43.88,36.9c2.83,10.25,0.86,15.82-11.09,15.34
		C117.02,149.35,106.39,149.68,95.78,149.67z M94.25,145.3c0,0.02,0,0.05,0,0.07c10.62,0,21.24,0,31.86,0
		c8.83,0,10.53-4.15,8.06-12.14c-5.87-18.98-20.9-31.49-38.56-31.3c-17.41,0.18-32.34,13.3-37.94,32.17
		c-2.33,7.86-0.02,11.05,7.62,11.16C74.94,145.41,84.6,145.3,94.25,145.3z"/>
	<circle class="st1" cx="96.06" cy="63.06" r="24.6"/>
</g>
</svg>
