<?xml version="1.0" encoding="UTF-8"?>
<svg xmlns="http://www.w3.org/2000/svg" version="1.1" viewBox="0 0 800 551.72">
  <defs>
    <style>
      .cls-1 {
        fill: #298fc2;
      }

      .cls-1, .cls-2, .cls-3 {
        fill-rule: evenodd;
      }

      .cls-2 {
        fill: #28356a;
      }

      .cls-4 {
        fill: #fff;
        stroke: #afafaf;
        stroke-miterlimit: 55.17;
        stroke-width: 13.79px;
      }

      .cls-3 {
        fill: #22284f;
      }
    </style>
  </defs>
  <!-- Generator: Adobe Illustrator 28.7.9, SVG Export Plug-In . SVG Version: 1.2.0 Build 218)  -->
  <g>
    <g id="Layer_1">
      <rect class="cls-4" x="6.9" y="6.9" width="786.21" height="537.93" rx="48.28" ry="48.28"/>
      <path class="cls-2" d="M364.67,279.4l3.48-22.19-7.76-.18h-37.05l25.75-163.72c.08-.5.34-.96.72-1.28.38-.33.86-.51,1.37-.51h62.47c20.74,0,35.05,4.33,42.52,12.87,3.5,4.01,5.73,8.2,6.81,12.8,1.13,4.84,1.15,10.61.05,17.66l-.08.51v4.52l3.5,1.99c2.95,1.57,5.29,3.37,7.09,5.42,3,3.43,4.93,7.78,5.75,12.94.85,5.31.57,11.63-.82,18.78-1.6,8.23-4.18,15.39-7.67,21.26-3.21,5.4-7.3,9.89-12.15,13.36-4.63,3.3-10.14,5.81-16.37,7.41-6.04,1.58-12.91,2.37-20.46,2.37h-4.86c-3.47,0-6.85,1.26-9.5,3.51-2.66,2.3-4.42,5.44-4.95,8.87l-.37,2-6.15,39.1-.28,1.43c-.07.46-.2.68-.39.83-.17.14-.4.23-.64.23h-30.02"/>
      <path class="cls-1" d="M469.78,135.89c-.18,1.2-.4,2.42-.64,3.67-8.24,42.42-36.42,57.07-72.42,57.07h-18.33c-4.4,0-8.11,3.2-8.8,7.56l-12.04,76.6c-.45,2.86,1.75,5.44,4.63,5.44h32.51c3.85,0,7.12-2.8,7.73-6.61l.32-1.66,6.12-38.95.39-2.14c.6-3.82,3.88-6.63,7.72-6.63h4.86c31.49,0,56.15-12.82,63.36-49.93,3.01-15.5,1.45-28.45-6.51-37.55-2.41-2.74-5.4-5.02-8.9-6.88"/>
      <path class="cls-3" d="M461.16,132.44c-1.26-.37-2.56-.7-3.89-1-1.34-.29-2.71-.55-4.12-.78-4.94-.8-10.36-1.18-16.16-1.18h-48.96c-1.21,0-2.35.27-3.38.77-2.26,1.09-3.94,3.23-4.34,5.86l-10.42,66.16-.3,1.93c.69-4.35,4.4-7.56,8.8-7.56h18.33c36,0,64.18-14.66,72.42-57.07.25-1.26.45-2.48.64-3.67-2.08-1.11-4.34-2.06-6.77-2.87-.6-.2-1.22-.39-1.85-.58"/>
      <path class="cls-2" d="M380.31,136.1c.41-2.62,2.08-4.77,4.34-5.85,1.03-.5,2.17-.77,3.38-.77h48.96c5.8,0,11.22.38,16.16,1.18,1.41.23,2.78.49,4.12.78,1.33.3,2.63.63,3.89,1,.62.19,1.24.38,1.85.57,2.43.81,4.69,1.76,6.77,2.87,2.45-15.68-.02-26.35-8.47-36.01-9.32-10.64-26.13-15.19-47.65-15.19h-62.47c-4.39,0-8.14,3.2-8.82,7.57l-26.02,165.4c-.51,3.27,2,6.22,5.3,6.22h38.57l20.1-127.77"/>
      <path class="cls-2" d="M180.62,324.43h-45.55c-3.12,0-5.77,2.27-6.25,5.36l-18.42,117.13c-.37,2.31,1.42,4.39,3.76,4.39h21.74c3.12,0,5.77-2.27,6.25-5.36l4.97-31.59c.48-3.09,3.14-5.36,6.25-5.36h14.42c30,0,47.32-14.56,51.84-43.41,2.04-12.62.09-22.54-5.81-29.49-6.47-7.63-17.95-11.66-33.2-11.66ZM185.87,367.21c-2.49,16.39-14.98,16.39-27.05,16.39h-6.87l4.82-30.61c.29-1.85,1.88-3.21,3.75-3.21h3.15c8.22,0,15.98,0,19.99,4.7,2.39,2.8,3.12,6.97,2.21,12.73Z"/>
      <path class="cls-2" d="M317.93,365.79h-21.81c-1.86,0-3.46,1.36-3.75,3.21l-.97,6.12-1.52-2.22c-4.72-6.87-15.25-9.17-25.76-9.17-24.1,0-44.69,18.31-48.7,43.99-2.08,12.81.88,25.06,8.13,33.6,6.65,7.85,16.16,11.13,27.47,11.13,19.42,0,30.19-12.52,30.19-12.52l-.97,6.08c-.37,2.32,1.42,4.41,3.74,4.41h19.65c3.12,0,5.76-2.27,6.26-5.36l11.79-74.86c.37-2.3-1.41-4.39-3.74-4.39ZM287.52,408.36c-2.1,12.49-11.99,20.88-24.61,20.88-6.33,0-11.39-2.04-14.65-5.9-3.22-3.83-4.45-9.29-3.42-15.37,1.97-12.39,12.02-21.05,24.44-21.05,6.19,0,11.23,2.07,14.54,5.96,3.32,3.93,4.64,9.42,3.69,15.48Z"/>
      <path class="cls-2" d="M432.41,367.66h-21.92c-2.09,0-4.06,1.04-5.24,2.79l-30.23,44.65-12.81-42.91c-.81-2.69-3.28-4.53-6.07-4.53h-21.54c-2.62,0-4.44,2.57-3.6,5.04l24.14,71.05-22.7,32.13c-1.78,2.53.01,6.01,3.1,6.01h21.89c2.08,0,4.02-1.02,5.2-2.72l72.9-105.53c1.75-2.52-.05-5.98-3.12-5.98"/>
      <path class="cls-1" d="M505.47,324.43h-45.55c-3.11,0-5.76,2.27-6.25,5.36l-18.42,117.13c-.37,2.31,1.42,4.39,3.74,4.39h23.38c2.17,0,4.03-1.59,4.37-3.75l5.23-33.2c.48-3.09,3.14-5.36,6.25-5.36h14.41c30.01,0,47.32-14.56,51.85-43.41,2.04-12.62.08-22.54-5.82-29.49-6.47-7.63-17.94-11.66-33.19-11.66ZM510.73,367.21c-2.48,16.39-14.97,16.39-27.05,16.39h-6.86l4.83-30.61c.29-1.85,1.87-3.21,3.74-3.21h3.15c8.22,0,15.98,0,19.99,4.7,2.39,2.8,3.12,6.97,2.21,12.73Z"/>
      <path class="cls-1" d="M642.76,365.79h-21.8c-1.87,0-3.46,1.36-3.74,3.21l-.97,6.12-1.53-2.22c-4.72-6.87-15.24-9.17-25.75-9.17-24.1,0-44.68,18.31-48.69,43.99-2.08,12.81.87,25.06,8.12,33.6,6.66,7.85,16.16,11.13,27.47,11.13,19.42,0,30.19-12.52,30.19-12.52l-.97,6.08c-.37,2.32,1.42,4.41,3.76,4.41h19.64c3.11,0,5.76-2.27,6.25-5.36l11.79-74.86c.36-2.3-1.43-4.39-3.76-4.39ZM612.36,408.36c-2.09,12.49-11.99,20.88-24.61,20.88-6.32,0-11.39-2.04-14.65-5.9-3.22-3.83-4.43-9.29-3.42-15.37,1.98-12.39,12.02-21.05,24.44-21.05,6.19,0,11.23,2.07,14.54,5.96,3.34,3.93,4.65,9.42,3.69,15.48Z"/>
      <path class="cls-1" d="M666.65,327.65l-18.69,119.27c-.37,2.31,1.42,4.39,3.74,4.39h18.79c3.12,0,5.77-2.27,6.25-5.36l18.43-117.12c.37-2.31-1.42-4.4-3.74-4.4h-21.04c-1.86,0-3.46,1.37-3.74,3.22"/>
    </g>
  </g>
</svg>