<?xml version="1.0" encoding="utf-8"?>
<!-- Generator: Adobe Illustrator 16.0.0, SVG Export Plug-In . SVG Version: 6.00 Build 0)  -->
<!DOCTYPE svg PUBLIC "-//W3C//DTD SVG 1.1//EN" "http://www.w3.org/Graphics/SVG/1.1/DTD/svg11.dtd">
<svg version="1.1" id="Layer_1" xmlns="http://www.w3.org/2000/svg" xmlns:xlink="http://www.w3.org/1999/xlink" x="0px" y="0px"
	 width="22.163px" height="21.897px" viewBox="0 0 22.163 21.897" enable-background="new 0 0 22.163 21.897" xml:space="preserve">
<path fill="#FFFFFF" d="M7.159,14.694c-0.139-0.724-0.152-1.271-0.35-1.737c-0.814-1.926-0.75-3.721,0.643-5.361
	c1.274-1.502,4.45-2.034,6.122-1.041c1.93,1.144,2.595,3.561,1.816,5.838c-0.795,2.332-1.988,3.133-4.175,2.394
	c-0.674-1.224-0.296-2.569,0.069-3.752c0.354-1.151,0.046-1.896-0.526-2.694C8.825,8.73,8.392,9.205,8.235,10.777
	c-0.325,3.256-0.694,6.507-1.045,9.77c-4.284-0.783-8.06-6.197-6.577-12.021c1.75-6.871,6.264-9.113,14.059-7.939
	C19.746,1.35,23.2,8.021,21.575,14.19c-1.172,4.448-6.416,9.017-13.338,7.117c0.506-1.315,0.972-2.629,1.521-3.905
	c0.351-0.817,1.103-0.688,1.802-0.563c2.712,0.481,4.686-0.603,5.787-3.031c1.904-4.198,0.159-9.402-5.122-9.594
	C9.888,4.13,7.639,4.203,5.93,6.195c-1.603,1.87-1.862,3.996-1.307,6.26C4.885,13.523,5.66,14.26,7.159,14.694z"/>
</svg>
