<?xml version="1.0" encoding="utf-8"?>
<!-- Generator: Adobe Illustrator 16.0.0, SVG Export Plug-In . SVG Version: 6.00 Build 0)  -->
<!DOCTYPE svg PUBLIC "-//W3C//DTD SVG 1.1//EN" "http://www.w3.org/Graphics/SVG/1.1/DTD/svg11.dtd">
<svg version="1.1" id="Layer_1" xmlns="http://www.w3.org/2000/svg" xmlns:xlink="http://www.w3.org/1999/xlink" x="0px" y="0px"
	 width="67.333px" height="68.667px" viewBox="0 0 67.333 68.667" enable-background="new 0 0 67.333 68.667" xml:space="preserve">
<path fill="#08080F" d="M61.578,39.029c0.25-2.729,0.123-5.539-0.428-8.367C58.814,18.693,49.563,9.802,38.316,7.296l-1.476,8.146
	c7.968,1.904,14.491,8.268,16.153,16.786c0.368,1.885,0.475,3.76,0.347,5.586l-4.983-0.738l3.715,5.231l3.714,5.226l5.075-3.928
	l5.08-3.927L61.578,39.029z"/>
<path fill="#08080F" d="M35.936,57.356c-7.262,1.4-14.381-1.01-19.274-5.822l3.377-2.701l-6.379-0.839l-6.381-0.836l-0.542,6.376
	l-0.543,6.372l3.96-3.173c6.791,7.113,16.973,10.738,27.367,8.742c8.659-1.666,15.711-6.904,19.921-13.872l-7.225-4.092
	C47.163,52.466,42.119,56.169,35.936,57.356"/>
<path fill="#08080F" d="M10.665,40.377c-2.187-11.204,4.824-22.054,15.792-24.842l0.883,4.514l3.721-5.22l3.722-5.214l-5.416-3.459
	l-5.412-3.462l0.915,4.712C9.399,11.069-0.553,26.257,2.506,41.949c0.206,1.047,0.465,2.076,0.773,3.075l7.921-2.494
	C10.987,41.83,10.805,41.11,10.665,40.377"/>
</svg>
