<?xml version="1.0" encoding="utf-8"?>
<!-- Generator: Adobe Illustrator 16.0.0, SVG Export Plug-In . SVG Version: 6.00 Build 0)  -->
<!DOCTYPE svg PUBLIC "-//W3C//DTD SVG 1.1//EN" "http://www.w3.org/Graphics/SVG/1.1/DTD/svg11.dtd">
<svg version="1.1" id="Layer_1" xmlns="http://www.w3.org/2000/svg" xmlns:xlink="http://www.w3.org/1999/xlink" x="0px" y="0px"
	 width="59.8px" height="50.2px" viewBox="0 0 59.8 50.2" enable-background="new 0 0 59.8 50.2" xml:space="preserve">
<g>
	<path fill="#CECDCD" d="M54.583,34.812v0.54c0,3.534,0.002,7.068,0,10.603c-0.002,2.368-1.449,3.806-3.828,3.806H9.487
		c-2.426,0-3.867-1.448-3.867-3.887c-0.002-3.464,0-6.93,0-10.394v-0.707h-0.57c-1.127,0-2.253-0.005-3.379,0.003
		c-0.434,0.003-0.861-0.109-0.973-0.527c-0.087-0.323-0.054-0.785,0.123-1.055c2.469-3.743,4.971-7.465,7.471-11.188
		c0.5-0.743,1.225-0.754,1.722-0.019c2.517,3.733,5.022,7.473,7.537,11.206c0.241,0.359,0.329,0.725,0.112,1.118
		c-0.207,0.375-0.555,0.482-0.965,0.479c-1.314-0.009-2.627-0.004-3.976-0.004v7.855h34.744v-7.831H54.583z"/>
	<path fill="#CECDCD" d="M54.433,15.645c1.306,0,2.551,0.008,3.794-0.004c0.469-0.005,0.913,0.022,1.161,0.5
		c0.241,0.469,0.035,0.854-0.229,1.248c-2.443,3.634-4.878,7.276-7.317,10.914c-0.611,0.913-1.286,0.915-1.898,0.002
		c-2.454-3.647-4.902-7.3-7.362-10.946c-0.258-0.381-0.429-0.759-0.188-1.202c0.241-0.441,0.655-0.506,1.112-0.502
		c1.264,0.012,2.525,0.004,3.822,0.004V7.778H12.563v7.854h-7.09v-0.536c0-3.553-0.003-7.104,0.001-10.654
		c0.003-2.309,1.458-3.77,3.759-3.77c13.825-0.001,27.648-0.001,41.475,0c2.221,0,3.718,1.49,3.723,3.715
		c0.008,3.516,0.003,7.034,0.003,10.551V15.645z"/>
	<path fill="#CECDCD" d="M25.667,28.883c0.076,0.645,0.243,1.101,0.498,1.373c0.451,0.482,1.285,0.724,2.502,0.724
		c0.714,0,1.282-0.105,1.702-0.318c0.422-0.211,0.633-0.529,0.633-0.952c0-0.407-0.169-0.716-0.509-0.927
		c-0.341-0.211-1.602-0.576-3.788-1.092c-1.573-0.39-2.681-0.878-3.325-1.461c-0.643-0.578-0.965-1.408-0.965-2.489
		c0-1.278,0.503-2.379,1.508-3.297c1.006-0.92,2.42-1.379,4.246-1.379c1.73,0,3.141,0.345,4.231,1.034
		c1.093,0.691,1.718,1.882,1.88,3.576h-3.621c-0.051-0.467-0.184-0.834-0.396-1.103c-0.399-0.494-1.078-0.738-2.037-0.738
		c-0.79,0-1.354,0.122-1.688,0.367c-0.335,0.246-0.503,0.534-0.503,0.865c0,0.414,0.179,0.716,0.535,0.9
		c0.356,0.195,1.616,0.529,3.779,1.004c1.442,0.339,2.522,0.851,3.243,1.537c0.712,0.695,1.067,1.563,1.067,2.604
		c0,1.373-0.514,2.492-1.534,3.36c-1.021,0.869-2.604,1.302-4.74,1.302c-2.182,0-3.792-0.46-4.831-1.379
		c-1.04-0.919-1.559-2.089-1.559-3.512H25.667z"/>
	<path fill="#CECDCD" d="M39.148,16.019c0.49,0.494,0.735,1.094,0.735,1.803c0,0.732-0.256,1.341-0.764,1.828
		c-0.51,0.487-1.103,0.731-1.777,0.731c-0.75,0-1.363-0.253-1.842-0.762c-0.479-0.506-0.717-1.097-0.717-1.772
		c0-0.721,0.25-1.327,0.755-1.823c0.503-0.496,1.104-0.744,1.804-0.744C38.056,15.28,38.66,15.527,39.148,16.019 M36.306,18.858
		c0.286,0.286,0.632,0.429,1.034,0.429c0.389,0,0.726-0.141,1.016-0.425c0.289-0.284,0.434-0.631,0.434-1.039
		c0-0.393-0.142-0.732-0.426-1.02c-0.284-0.286-0.626-0.43-1.023-0.43s-0.741,0.143-1.03,0.428c-0.29,0.284-0.436,0.629-0.436,1.036
		C35.875,18.231,36.019,18.571,36.306,18.858"/>
</g>
</svg>
