<?xml version="1.0" encoding="utf-8"?>
<!-- Generator: Adobe Illustrator 16.0.0, SVG Export Plug-In . SVG Version: 6.00 Build 0)  -->
<!DOCTYPE svg PUBLIC "-//W3C//DTD SVG 1.1//EN" "http://www.w3.org/Graphics/SVG/1.1/DTD/svg11.dtd">
<svg version="1.1" id="Layer_1" xmlns="http://www.w3.org/2000/svg" xmlns:xlink="http://www.w3.org/1999/xlink" x="0px" y="0px"
	 width="45.5px" height="44.2px" viewBox="0 0 45.5 44.2" enable-background="new 0 0 45.5 44.2" xml:space="preserve">
<path fill="#231F20" d="M30.672,27.715c-7.554,0.006-13.747-6.202-13.724-13.759C16.97,6.39,23.076,0.27,30.613,0.26
	c7.591-0.011,13.772,6.144,13.716,13.729C44.271,21.72,38.409,27.613,30.672,27.715 M39.821,5.86
	c-1.157,0.767-2.285,1.516-3.38,2.244c0.197,1.729,0.399,3.482,0.601,5.232h5.857C42.664,10.465,41.681,7.954,39.821,5.86
	 M39.842,22.143c1.822-2.07,2.893-4.528,3.049-7.384h-5.914c-0.022,0.324-0.034,0.617-0.067,0.907
	c-0.145,1.237-0.258,2.478-0.458,3.706c-0.077,0.47,0.018,0.659,0.435,0.896C37.888,20.834,38.835,21.496,39.842,22.143
	 M21.276,5.893c-1.557,1.453-3.156,5.295-3.033,7.373h5.812c0.202-1.766,0.401-3.494,0.592-5.153
	C23.53,7.377,22.411,6.64,21.276,5.893 M18.196,14.692c0.229,2.891,1.275,5.369,3.042,7.44c1.091-0.71,2.106-1.398,3.156-2.033
	c0.268-0.163,0.315-0.288,0.273-0.574c-0.17-1.144-0.314-2.292-0.456-3.441c-0.055-0.459-0.074-0.923-0.108-1.392H18.196z
	 M25.441,13.337h4.393V9.425c-1.281-0.253-2.523-0.498-3.895-0.769C25.776,10.198,25.61,11.756,25.441,13.337 M35.143,8.606
	c-1.322,0.256-2.582,0.5-3.873,0.75v3.914h4.407c-0.064-0.804-0.108-1.578-0.198-2.347C35.389,10.14,35.254,9.361,35.143,8.606
	 M35.189,19.365c0.146-1.535,0.295-3.096,0.443-4.661h-4.361v3.892C32.578,18.852,33.837,19.1,35.189,19.365 M25.48,14.692
	c0.168,1.613,0.328,3.155,0.487,4.67c1.363-0.27,2.604-0.515,3.867-0.765v-3.905H25.48z M29.832,26.307v-6.238
	c-1.229,0.071-2.382,0.321-3.533,0.769C27.02,22.963,27.68,25.061,29.832,26.307 M26.311,7.226c0.841,0.395,2.923,0.778,3.528,0.659
	V1.787C27.675,3.038,27.013,5.141,26.311,7.226 M31.264,1.728V7.95c1.223-0.053,2.36-0.318,3.524-0.743
	C34.081,5.085,33.423,2.984,31.264,1.728 M31.261,26.302c2.159-1.261,2.82-3.362,3.525-5.48c-1.167-0.418-2.306-0.694-3.525-0.748
	V26.302z M36.146,6.725c0.934-0.641,1.834-1.26,2.78-1.91c-1.52-1.351-3.146-2.209-4.982-2.738c0.417,0.761,0.841,1.461,1.189,2.196
	C35.49,5.023,35.773,5.808,36.146,6.725 M36.105,21.206c-0.561,1.734-1.183,3.277-2.255,4.703c1.947-0.502,3.563-1.412,5.063-2.756
	C37.968,22.499,37.073,21.878,36.105,21.206 M27.301,2.054c-1.968,0.51-3.563,1.412-5.006,2.709
	c0.889,0.737,1.741,1.427,2.792,1.891C25.563,5.005,26.255,3.516,27.301,2.054 M25.061,21.248c-0.969,0.659-1.871,1.274-2.81,1.911
	c1.485,1.33,3.12,2.191,5.053,2.748C26.167,24.488,25.577,22.935,25.061,21.248"/>
<path fill="#231F20" d="M11.225,30.341c2.964-2.265,6.267-2.624,9.749-2.112c2.245,0.33,4.379,1.049,6.461,1.936
	c0.299,0.127,0.644,0.193,0.97,0.199c1.129,0.023,2.258,0.008,3.388,0.01c1.523,0.002,2.336,0.686,2.604,2.219
	c0.261-0.105,0.517-0.202,0.769-0.309c2.239-0.948,4.476-1.898,6.713-2.846c1.169-0.496,2.401-0.055,2.944,1.053
	c0.536,1.088,0.115,2.27-0.964,2.942c-2.822,1.759-5.629,3.541-8.434,5.331c-1.885,1.203-3.861,2.145-6.116,2.408
	c-1.776,0.207-3.547,0.129-5.309-0.098c-2.295-0.297-4.58-0.674-6.876-0.961c-1.242-0.155-2.495-0.104-3.694,0.313
	c-0.438,0.151-0.854,0.384-1.255,0.622c-0.684,0.408-1.14,0.955-0.961,1.828c0.021,0.099,0.005,0.205,0.002,0.308
	c-0.015,0.554-0.219,0.767-0.78,0.769c-1.496,0.007-2.992,0.004-4.489,0.004c-1.202,0-2.405,0-3.607,0
	c-0.896-0.002-1.159-0.34-0.935-1.203c0.458-1.771,0.912-3.544,1.371-5.316C3.381,35.1,3.99,32.762,4.6,30.424
	c0.157-0.609,0.319-0.74,0.949-0.741c1.556-0.002,3.109,0.013,4.664-0.007C10.71,29.669,11.086,29.777,11.225,30.341 M11.216,39.912
	c0.546-0.264,1.017-0.535,1.519-0.725c1.635-0.615,3.337-0.607,5.035-0.393c2.033,0.257,4.057,0.6,6.09,0.875
	c1.82,0.244,3.648,0.352,5.479,0.097c1.988-0.276,3.744-1.132,5.408-2.204c2.821-1.818,5.636-3.644,8.455-5.464
	c0.344-0.221,0.526-0.507,0.415-0.923c-0.103-0.393-0.461-0.65-0.892-0.635c-0.144,0.005-0.293,0.037-0.425,0.095
	c-3.093,1.328-6.182,2.664-9.274,3.99c-0.267,0.114-0.558,0.229-0.839,0.235c-2.008,0.045-4.016,0.104-6.022,0.063
	c-0.807-0.017-1.616-0.244-2.413-0.427c-0.411-0.096-0.585-0.497-0.467-0.861c0.116-0.357,0.481-0.521,0.9-0.404
	c0.28,0.078,0.558,0.184,0.845,0.232c2.201,0.378,4.413,0.262,6.624,0.124c0.257-0.017,0.51-0.112,0.765-0.175
	c0.444-0.105,0.563-0.428,0.536-0.832c-0.033-0.512-0.4-0.834-0.992-0.842c-1.041-0.012-2.084-0.03-3.124,0.004
	c-0.808,0.027-1.557-0.09-2.286-0.463c-0.571-0.291-1.19-0.492-1.801-0.701c-2.806-0.955-5.661-1.523-8.636-0.991
	c-1.771,0.317-3.359,1.024-4.627,2.339c-0.152,0.158-0.256,0.432-0.26,0.652c-0.023,1.482-0.013,2.963-0.014,4.445V39.912z
	 M9.842,31.061c-1.207,0-2.379,0.012-3.549-0.007c-0.308-0.005-0.425,0.093-0.502,0.394c-0.68,2.668-1.381,5.33-2.074,7.992
	c-0.269,1.031-0.537,2.062-0.812,3.123h6.937V31.061z"/>
<path fill="#FFFFFF" d="M25.441,13.337c0.168-1.582,0.334-3.139,0.498-4.681c1.37,0.27,2.613,0.515,3.896,0.768v3.913H25.441z"/>
</svg>
