<?xml version="1.0" encoding="utf-8"?>
<!-- Generator: Adobe Illustrator 16.0.0, SVG Export Plug-In . SVG Version: 6.00 Build 0)  -->
<!DOCTYPE svg PUBLIC "-//W3C//DTD SVG 1.1//EN" "http://www.w3.org/Graphics/SVG/1.1/DTD/svg11.dtd">
<svg version="1.1" id="Layer_1" xmlns="http://www.w3.org/2000/svg" xmlns:xlink="http://www.w3.org/1999/xlink" x="0px" y="0px"
	 width="40.7px" height="11.8px" viewBox="0 0 40.7 11.8" enable-background="new 0 0 40.7 11.8" xml:space="preserve">
<path fill="#707171" d="M2.678,6.914C2.714,7.215,2.792,7.43,2.913,7.559c0.212,0.226,0.604,0.339,1.175,0.339
	c0.336,0,0.604-0.05,0.8-0.149C5.085,7.65,5.185,7.5,5.185,7.301c0-0.19-0.079-0.336-0.239-0.436s-0.752-0.27-1.779-0.513
	C2.427,6.17,1.908,5.941,1.606,5.667c-0.304-0.271-0.454-0.66-0.454-1.17c0-0.6,0.235-1.116,0.709-1.548
	c0.471-0.431,1.136-0.647,1.994-0.647c0.812,0,1.475,0.162,1.986,0.487c0.514,0.324,0.808,0.883,0.882,1.679H5.024
	C5,4.249,4.939,4.076,4.837,3.949C4.651,3.718,4.332,3.602,3.88,3.602c-0.371,0-0.635,0.059-0.792,0.174
	C2.93,3.891,2.853,4.026,2.853,4.182c0,0.194,0.082,0.336,0.251,0.423c0.167,0.092,0.759,0.249,1.774,0.471
	c0.677,0.159,1.186,0.4,1.524,0.722c0.334,0.326,0.501,0.734,0.501,1.223c0,0.646-0.241,1.171-0.722,1.579
	c-0.48,0.406-1.223,0.611-2.227,0.611c-1.024,0-1.78-0.217-2.268-0.647C1.2,8.131,0.955,7.583,0.955,6.914H2.678z"/>
<path fill="#707171" d="M8.839,10.237l0.216,0.012c0.167,0.008,0.325,0.002,0.477-0.018c0.152-0.02,0.279-0.066,0.382-0.137
	c0.101-0.068,0.193-0.209,0.278-0.424s0.122-0.346,0.11-0.394l-2.391-6.79h1.893l1.42,4.797l1.343-4.797h1.807l-2.229,6.396
	c-0.432,1.232-0.772,1.996-1.023,2.293s-0.753,0.445-1.505,0.445c-0.15,0-0.273-0.002-0.364-0.004
	c-0.092-0.002-0.229-0.009-0.413-0.021V10.237z"/>
<path fill="#707171" d="M23.921,2.51c0.277,0.112,0.53,0.307,0.758,0.585c0.182,0.227,0.306,0.505,0.369,0.835
	c0.041,0.219,0.06,0.539,0.06,0.961l-0.011,4.097h-1.742V4.85c0-0.247-0.04-0.449-0.12-0.609c-0.151-0.302-0.429-0.453-0.835-0.453
	c-0.469,0-0.793,0.195-0.973,0.585c-0.092,0.206-0.138,0.455-0.138,0.745v3.871h-1.713V5.118c0-0.385-0.039-0.666-0.119-0.841
	c-0.142-0.314-0.423-0.471-0.841-0.471c-0.484,0-0.811,0.157-0.978,0.471C17.546,4.456,17.5,4.723,17.5,5.076v3.913h-1.724v-6.49
	h1.653v0.949c0.211-0.338,0.409-0.579,0.596-0.722c0.331-0.255,0.758-0.382,1.283-0.382c0.498,0,0.898,0.109,1.206,0.328
	c0.246,0.203,0.433,0.464,0.56,0.782c0.224-0.382,0.499-0.662,0.829-0.841c0.35-0.179,0.741-0.269,1.17-0.269
	C23.36,2.343,23.643,2.399,23.921,2.51"/>
<path fill="#707171" d="M32.569,3.185c0.53,0.561,0.796,1.384,0.796,2.47c0,1.146-0.26,2.02-0.779,2.619
	c-0.518,0.602-1.185,0.9-2.003,0.9c-0.519,0-0.952-0.129-1.297-0.387c-0.187-0.144-0.372-0.353-0.551-0.627v3.389h-1.684V2.487h1.63
	v0.961c0.184-0.283,0.38-0.506,0.588-0.669c0.381-0.29,0.833-0.435,1.356-0.435C31.39,2.344,32.038,2.624,32.569,3.185
	 M31.263,4.408c-0.23-0.386-0.605-0.579-1.125-0.579c-0.623,0-1.051,0.293-1.282,0.877c-0.121,0.31-0.182,0.704-0.182,1.181
	c0,0.756,0.202,1.288,0.608,1.594c0.241,0.178,0.525,0.268,0.855,0.268c0.479,0,0.844-0.183,1.096-0.549
	c0.251-0.365,0.376-0.853,0.376-1.461C31.61,5.237,31.494,4.794,31.263,4.408"/>
<rect x="35.027" y="0.196" fill="#707171" width="1.7" height="8.794"/>
<path fill="#707171" d="M39.933,0.543c0.23,0.231,0.346,0.514,0.346,0.847c0,0.343-0.119,0.63-0.359,0.859
	c-0.239,0.228-0.517,0.342-0.835,0.342c-0.351,0-0.639-0.119-0.864-0.357c-0.225-0.237-0.337-0.515-0.337-0.833
	c0-0.338,0.118-0.624,0.355-0.856c0.235-0.233,0.518-0.349,0.846-0.349C39.42,0.196,39.704,0.312,39.933,0.543 M38.599,1.875
	c0.135,0.135,0.297,0.202,0.485,0.202c0.183,0,0.341-0.067,0.478-0.2c0.136-0.134,0.203-0.296,0.203-0.488
	c0-0.184-0.066-0.344-0.199-0.479c-0.135-0.135-0.294-0.202-0.481-0.202c-0.187,0-0.348,0.067-0.483,0.201
	c-0.137,0.133-0.204,0.296-0.204,0.487C38.397,1.582,38.463,1.741,38.599,1.875"/>
</svg>
