<?xml version="1.0" encoding="utf-8"?>
<!-- Generator: Adobe Illustrator 16.0.0, SVG Export Plug-In . SVG Version: 6.00 Build 0)  -->
<!DOCTYPE svg PUBLIC "-//W3C//DTD SVG 1.1//EN" "http://www.w3.org/Graphics/SVG/1.1/DTD/svg11.dtd">
<svg version="1.1" id="Layer_1" xmlns="http://www.w3.org/2000/svg" xmlns:xlink="http://www.w3.org/1999/xlink" x="0px" y="0px"
	 width="20.834px" height="18.617px" viewBox="0 0 20.834 18.617" enable-background="new 0 0 20.834 18.617" xml:space="preserve">
<path fill="#FFFFFF" d="M19.433,1.362c0.354,0.833,0.641,1.507,0.97,2.28c-1.215,0.873-1.431,2.214-1.611,3.709
	c-0.543,4.49-3.826,8.766-8.348,10.205c-3.177,1.011-6.179,0.855-9.354-0.431c0.774-1.316,2.253-1.198,3.348-1.929
	c0.176-0.821-0.172-1.274-1.006-1.664c-1.017-0.475-1.422-1.326-0.867-2.082c-0.573-0.715-1.078-1.295-1.522-1.919
	c-0.257-0.36-0.38-0.817-0.627-1.187c-0.624-0.936,1.273-1.492,0.27-2.68c-0.516-0.612-0.242-1.9-0.291-2.887
	C0.382,2.567,0.511,2.347,0.57,2.146C1.551,1.699,1.96,2.49,2.517,2.971c2.072,1.794,5.005,2.897,7.39,2.733
	c0.063-0.486,0.139-0.998,0.198-1.512c0.291-2.543,3.392-4.402,5.735-3.441c0.426,0.173,0.976,0.219,1.266,0.518
	C17.891,2.08,18.667,2.042,19.433,1.362z"/>
</svg>
