<?xml version="1.0" encoding="utf-8"?>
<!-- Generator: Adobe Illustrator 16.0.0, SVG Export Plug-In . SVG Version: 6.00 Build 0)  -->
<!DOCTYPE svg PUBLIC "-//W3C//DTD SVG 1.1//EN" "http://www.w3.org/Graphics/SVG/1.1/DTD/svg11.dtd">
<svg version="1.1" id="Layer_1" xmlns="http://www.w3.org/2000/svg" xmlns:xlink="http://www.w3.org/1999/xlink" x="0px" y="0px"
	 width="48.875px" height="36.25px" viewBox="0 0 48.875 36.25" enable-background="new 0 0 48.875 36.25" xml:space="preserve">
<path fill-rule="evenodd" clip-rule="evenodd" d="M1.107,35.875c1.095-1.967,2.227-3.913,3.278-5.903
	c5.081-9.61,10.14-19.232,15.333-29.09c2.723,5.152,5.363,10.147,8.104,15.333c1.662-3.133,3.231-6.09,4.905-9.245
	c1.273,2.388,2.454,4.583,3.616,6.788c3.66,6.94,7.31,13.886,10.979,20.821c0.166,0.314,0.491,0.546,0.741,0.816
	c0,0.24,0,0.479,0,0.719c-15.652,0-31.305,0-46.957,0C1.107,36.035,1.107,35.955,1.107,35.875z M5.846,33.221
	c9.332,0,18.479,0,27.761,0c-2.569-4.876-5.066-9.612-7.57-14.361c-1.88,1.117-3.622,1.143-5.426,0.098
	c-0.411-0.237-1.17-0.306-1.555-0.083c-1.892,1.095-3.743,1.146-5.655,0.005C10.873,23.675,8.391,28.389,5.846,33.221z
	 M43.472,33.32c-2.006-3.807-3.868-7.343-5.776-10.965c-1.288,0.719-2.598,0.887-3.813,0.185c-0.999-0.576-1.771-0.488-2.573,0.316
	c1.729,3.271,3.444,6.544,5.199,9.796c0.158,0.292,0.562,0.63,0.86,0.639C39.312,33.349,41.259,33.32,43.472,33.32z M24.68,16.271
	c-1.647-3.119-3.26-6.169-4.956-9.38c-1.716,3.25-3.327,6.306-4.942,9.365c0.814,0.792,1.607,0.841,2.527,0.299
	c1.615-0.951,3.266-0.952,4.875,0.028C23.064,17.119,23.84,17.006,24.68,16.271z M32.728,12.952
	c-1.087,2.061-2.064,3.842-2.956,5.665c-0.171,0.35-0.008,0.861,0.002,1.299c0.354-0.043,0.753,0.006,1.055-0.144
	c1.317-0.649,2.574-0.641,3.888,0.05c0.441,0.232,1.034,0.176,1.798,0.285C35.169,17.566,34.004,15.365,32.728,12.952z"/>
</svg>
