<?xml version="1.0" encoding="utf-8"?>
<!-- Generator: Adobe Illustrator 16.0.0, SVG Export Plug-In . SVG Version: 6.00 Build 0)  -->
<!DOCTYPE svg PUBLIC "-//W3C//DTD SVG 1.1//EN" "http://www.w3.org/Graphics/SVG/1.1/DTD/svg11.dtd">
<svg version="1.1" id="Layer_1" xmlns="http://www.w3.org/2000/svg" xmlns:xlink="http://www.w3.org/1999/xlink" x="0px" y="0px"
	 width="60.5px" height="55.833px" viewBox="0 0 60.5 55.833" enable-background="new 0 0 60.5 55.833" xml:space="preserve">
<path d="M35.47,32.729c-0.344,1.585-0.533,3.003-0.988,4.329c-0.241,0.709-0.918,1.747-1.437,1.769
	c-0.728,0.03-1.548-0.673-2.214-1.204c-0.346-0.277-0.444-0.861-0.806-1.628c-2.565,6.98-9.144,9.474-14.134,13.752
	c0.329,0.378,0.557,0.7,0.845,0.957c0.656,0.583,0.548,1.082-0.046,1.645c-1.102,1.045-2.19,2.106-3.239,3.203
	c-0.616,0.644-1.065,0.511-1.633-0.069c-3.365-3.435-6.745-6.856-10.142-10.261c-0.588-0.588-0.656-1.039-0.019-1.634
	c1.109-1.036,2.165-2.129,3.251-3.191c0.178-0.175,0.44-0.48,0.583-0.44c1.645,0.46,2.016-0.965,2.391-1.859
	c1.088-2.591,2.041-5.252,2.851-7.944c0.727-2.417,1.232-4.905,1.766-7.376c0.486-2.251,1.865-3.493,4.071-3.956
	c3.41-0.715,6.813-1.463,10.41-2.239c-0.404-1.369-0.79-2.654-1.161-3.942c-0.649-2.25-0.084-3.326,2.145-4.006
	c7.934-2.421,15.87-4.835,23.809-7.241c2.261-0.685,3.332-0.119,4.019,2.108c1.382,4.496,2.757,8.995,4.12,13.498
	c0.701,2.322,0.111,3.407-2.193,4.106c-5.809,1.764-11.609,3.551-17.434,5.262c-1.127,0.33-1.594,0.796-1.362,2.003
	c0.169,0.886,0.126,1.814,0.151,2.726c0.055,2-0.836,2.63-2.764,1.965C36.079,32.979,35.853,32.88,35.47,32.729 M27.337,17.659
	c-3.8,0.837-7.403,1.623-11.003,2.426c-1.425,0.319-2.278,1.231-2.624,2.64c-0.386,1.572-0.813,3.134-1.163,4.713
	C11.499,32.18,10.665,37,7.461,40.93c-0.049,0.061-0.015,0.189-0.022,0.329c2.554,2.469,5.125,4.956,7.735,7.48
	c2.794-2.021,5.85-3.946,8.549-6.283c1.831-1.585,3.514-3.563,4.635-5.696c1.771-3.369,3.857-6.389,6.679-8.928
	c1.014-0.913,1.953-1.911,2.905-2.892c1.396-1.436,1.47-2.792,0.244-3.957c-1.179-1.121-2.457-1.013-3.842,0.362
	c-2.658,2.639-5.344,5.252-7.929,7.962c-0.892,0.936-1.86,1.338-3.076,1.251c-0.347-0.024-0.681-0.244-1.021-0.375
	c0.315-0.244,0.642-0.714,0.943-0.697c1.626,0.084,2.007-1.033,2.08-2.22c0.071-1.136-0.186-2.29-0.265-3.438
	c-0.025-0.364,0.056-0.735,0.089-1.104c0.334,0.204,0.667,0.409,1.001,0.612c0.12,0.072,0.241,0.141,0.367,0.215
	c0.759-0.317,1.489-0.624,2.307-0.967C28.333,20.921,27.866,19.389,27.337,17.659 M30.276,23.36c0.18,0.118,0.359,0.237,0.538,0.355
	c0.484-0.642,0.932-1.316,1.462-1.917c0.567-0.643,1.182-1.255,1.834-1.812c1.298-1.108,2.791-1.204,4.211-0.335
	c1.424,0.87,2.18,2.538,1.766,4.018c-0.154,0.55-0.439,1.065-0.763,1.831c6.39-1.948,12.569-3.815,18.733-5.727
	c0.91-0.282,1.184-1.025,0.899-1.956c-1.462-4.786-2.913-9.575-4.374-14.36c-0.329-1.074-1.061-1.416-2.12-1.094
	C44.292,4.85,36.122,7.338,27.951,9.827c-1.049,0.32-1.478,0.987-1.147,2.078C27.963,15.722,29.12,19.542,30.276,23.36
	 M15.655,51.459c-3.364-3.253-6.767-6.544-10.185-9.849c-0.786,0.774-1.81,1.785-2.899,2.858c3.456,3.353,6.86,6.652,10.191,9.883
	C13.656,53.458,14.647,52.467,15.655,51.459 M33.167,37.887c0.413-2.503,1.436-4.743,1.09-7.579c-1.681,1.647-3.27,2.861-2.9,5.183
	C31.517,36.487,31.646,37.493,33.167,37.887 M37.726,27.286l-0.436-0.095c-0.566,1.108-2.501,1.363-1.932,3.145
	c0.349,1.09,1.043,1.951,2.606,1.702C37.884,30.429,37.804,28.858,37.726,27.286 M26.813,27.427c0.78-1.393,2.37-1.798,2.505-3.515
	C26.466,24.425,26.375,24.544,26.813,27.427"/>
<path fill="#FFFFFF" d="M27.337,17.658c0.528,1.73,0.996,3.262,1.504,4.927c-0.818,0.342-1.548,0.649-2.307,0.967
	c-0.126-0.074-0.247-0.144-0.366-0.215c-0.335-0.204-0.668-0.409-1.002-0.613c-0.033,0.368-0.114,0.739-0.089,1.103
	c0.079,1.148,0.336,2.303,0.265,3.438c-0.073,1.187-0.454,2.303-2.08,2.219c-0.301-0.017-0.628,0.454-0.943,0.699
	c0.34,0.13,0.674,0.35,1.021,0.375c1.216,0.086,2.184-0.317,3.076-1.252c2.585-2.71,5.271-5.322,7.929-7.962
	c1.385-1.374,2.663-1.482,3.842-0.362c1.226,1.165,1.151,2.521-0.244,3.958c-0.952,0.98-1.892,1.979-2.905,2.892
	c-2.822,2.539-4.908,5.56-6.679,8.929c-1.121,2.132-2.804,4.109-4.635,5.694c-2.699,2.337-5.755,4.263-8.549,6.284
	c-2.61-2.523-5.181-5.011-7.735-7.48c0.007-0.141-0.027-0.269,0.022-0.328c3.203-3.932,4.037-8.75,5.086-13.493
	c0.35-1.579,0.777-3.141,1.163-4.713c0.346-1.408,1.199-2.321,2.625-2.639C19.935,19.281,23.538,18.495,27.337,17.658
	 M36.835,25.239c-1.1-0.911-1.919-1.591-2.74-2.271c-0.14,0.295-0.472,0.771-0.391,0.856c0.605,0.639,1.266,1.239,1.979,1.757
	C35.835,25.692,36.269,25.418,36.835,25.239"/>
<path fill="#FFFFFF" d="M30.276,23.36c-1.157-3.819-2.313-7.638-3.473-11.456c-0.331-1.091,0.098-1.757,1.147-2.077
	c8.171-2.489,16.342-4.977,24.513-7.464c1.06-0.323,1.791,0.019,2.12,1.093c1.461,4.785,2.912,9.575,4.374,14.36
	c0.284,0.932,0.011,1.675-0.899,1.957c-6.164,1.912-12.344,3.779-18.733,5.727c0.323-0.766,0.608-1.281,0.763-1.832
	c0.414-1.479-0.342-3.147-1.766-4.018c-1.42-0.868-2.913-0.773-4.211,0.336c-0.652,0.557-1.266,1.169-1.834,1.811
	c-0.53,0.601-0.979,1.276-1.462,1.918C30.635,23.597,30.457,23.479,30.276,23.36 M52.756,14.465
	c-0.147,0.546-0.426,1.456-0.625,2.383c-0.08,0.375,0.017,0.789,0.034,1.184c0.35-0.27,0.852-0.468,1.021-0.825
	c1.625-3.395,0.262-7.987-2.965-10c-0.365-0.227-0.892-0.193-1.344-0.281c0.242,0.406,0.391,0.938,0.741,1.2
	C51.617,9.616,52.66,11.573,52.756,14.465 M47.783,8.748l-0.131,0.438c0.111,0.161,0.189,0.372,0.341,0.476
	c2.338,1.61,3.168,3.69,2.116,6.429c-0.1,0.259,0.172,0.661,0.271,0.997c0.279-0.245,0.663-0.437,0.82-0.744
	c1.216-2.383,0.153-5.965-2.185-7.34C48.672,8.803,48.197,8.828,47.783,8.748 M49.584,13.97c0.088-0.073,0.176-0.146,0.263-0.22
	c-0.648-0.964-1.26-1.958-1.978-2.868c-0.155-0.197-0.692-0.092-1.054-0.125c0.113,0.327,0.129,0.769,0.356,0.962
	c1.086,0.921,1.476,1.986,1.005,3.37c-0.087,0.256,0.106,0.608,0.17,0.916c0.299-0.189,0.728-0.31,0.867-0.581
	C49.439,14.991,49.472,14.46,49.584,13.97"/>
<path fill="#FFFFFF" d="M15.656,51.459c-1.008,1.007-1.999,1.999-2.893,2.894c-3.332-3.231-6.735-6.532-10.191-9.885
	c1.088-1.072,2.112-2.083,2.898-2.857C8.888,44.915,12.292,48.206,15.656,51.459"/>
<path fill="#FFFFFF" d="M33.167,37.888c-1.521-0.396-1.65-1.399-1.81-2.398c-0.371-2.32,1.218-3.535,2.899-5.181
	C34.604,33.144,33.582,35.384,33.167,37.888"/>
<path fill="#FFFFFF" d="M37.725,27.286c0.08,1.571,0.159,3.143,0.24,4.751c-1.564,0.249-2.259-0.612-2.607-1.702
	c-0.569-1.781,1.365-2.036,1.933-3.144L37.725,27.286z"/>
<path fill="#FFFFFF" d="M26.813,27.427c-0.439-2.883-0.347-3.002,2.505-3.515C29.184,25.629,27.593,26.034,26.813,27.427"/>
<path d="M36.835,25.239c-0.566,0.179-1,0.453-1.152,0.342c-0.713-0.518-1.373-1.118-1.979-1.757
	c-0.081-0.085,0.251-0.561,0.391-0.856C34.917,23.648,35.736,24.328,36.835,25.239"/>
<path d="M52.757,14.465c-0.099-2.893-1.141-4.849-3.138-6.339c-0.351-0.262-0.499-0.794-0.741-1.201
	c0.452,0.088,0.979,0.055,1.344,0.282c3.226,2.013,4.591,6.605,2.966,10c-0.171,0.357-0.675,0.554-1.022,0.825
	c-0.017-0.396-0.113-0.809-0.033-1.184C52.33,15.921,52.61,15.011,52.757,14.465"/>
<path d="M47.783,8.749c0.414,0.08,0.891,0.054,1.232,0.256c2.337,1.374,3.4,4.956,2.184,7.339c-0.156,0.307-0.541,0.499-0.818,0.744
	c-0.1-0.335-0.37-0.737-0.271-0.996c1.051-2.739,0.221-4.82-2.117-6.429c-0.15-0.104-0.229-0.315-0.34-0.476L47.783,8.749z"/>
<path d="M49.584,13.97c-0.112,0.49-0.146,1.021-0.37,1.454c-0.14,0.271-0.568,0.392-0.867,0.581c-0.063-0.308-0.257-0.66-0.17-0.916
	c0.471-1.384,0.081-2.449-1.005-3.37c-0.228-0.193-0.243-0.635-0.356-0.962c0.361,0.033,0.898-0.072,1.054,0.125
	c0.718,0.91,1.329,1.904,1.978,2.868C49.76,13.824,49.672,13.897,49.584,13.97"/>
</svg>
