<?xml version="1.0" encoding="utf-8"?>
<!-- Generator: Adobe Illustrator 16.0.0, SVG Export Plug-In . SVG Version: 6.00 Build 0)  -->
<!DOCTYPE svg PUBLIC "-//W3C//DTD SVG 1.1//EN" "http://www.w3.org/Graphics/SVG/1.1/DTD/svg11.dtd">
<svg version="1.1" id="Layer_1" xmlns="http://www.w3.org/2000/svg" xmlns:xlink="http://www.w3.org/1999/xlink" x="0px" y="0px"
	 width="27.598px" height="29.813px" viewBox="0 0 27.598 29.813" enable-background="new 0 0 27.598 29.813" xml:space="preserve">
<rect x="-1.231" y="-0.936" fill="#FFFFFF" width="32.727" height="30.207"/>
<path d="M6.968,5.276C6.29,3.235,6.658,2.01,8.142,1.128c2.049-1.219,3.385-0.866,5.638,1.488c1.846-2.486,3.301-2.541,5.313-1.63
	c1.662,0.751,2.053,1.973,1.495,4.289c0.98,0,1.945,0.049,2.904-0.009c3.079-0.185,4.063,0.767,3.874,3.837
	c-0.035,0.566,0.008,1.137-0.009,1.706c-0.024,0.843-0.324,1.583-1.065,2.019c-0.468,0.274-0.57,0.603-0.568,1.103
	c0.018,4.123,0.009,8.246,0.012,12.369c0.002,2.1-0.847,2.97-2.92,2.97c-6.057,0.001-12.114,0.002-18.171,0
	c-1.962-0.001-2.877-0.91-2.877-2.846c0.001-4.152-0.006-8.305,0.009-12.455c0.001-0.512-0.059-0.883-0.577-1.175
	c-0.685-0.385-1.003-1.064-1.009-1.86c-0.01-1.081-0.028-2.162,0-3.242c0.038-1.455,0.963-2.377,2.434-2.409
	C4.042,5.252,5.461,5.276,6.968,5.276 M3.389,13.293c-0.029,0.178-0.055,0.26-0.055,0.343c-0.003,4.317,0.001,8.635-0.01,12.953
	c-0.002,0.813,0.414,1.11,1.168,1.106c2.33-0.007,4.659-0.002,6.988-0.002h1.452v-14.4H3.389z M14.613,13.297v14.396
	c2.807,0,5.557,0.006,8.306-0.003c1.029-0.003,1.221-0.211,1.221-1.262c0.003-4.119,0.003-8.237-0.001-12.355
	c0-0.247-0.021-0.494-0.035-0.777H14.613z M12.959,6.861c-3.471,0-6.85-0.001-10.228,0.001C2.07,6.864,1.747,7.177,1.768,7.866
	c0.026,0.881,0.002,1.762,0.007,2.643c0.006,0.969,0.218,1.176,1.218,1.177c3.069,0.003,6.139,0.002,9.208-0.001
	c0.244-0.001,0.487-0.037,0.759-0.058V6.861z M14.607,11.58c0.101,0.045,0.15,0.087,0.2,0.087c3.349,0.008,6.696,0.018,10.044,0.016
	c0.633-0.001,0.919-0.382,0.928-0.981c0.013-0.851,0.011-1.703,0.004-2.554c-0.008-1.086-0.204-1.284-1.305-1.287
	c-2.242-0.006-4.483-0.001-6.726-0.001h-3.146V11.58z M12.943,5.249c-0.125-1.151-0.628-2.016-1.397-2.72
	c-0.238-0.217-0.574-0.392-0.889-0.448C9.601,1.895,8.277,2.688,8.152,3.53c-0.12,0.804,0.83,1.63,2.063,1.709
	C11.084,5.294,11.96,5.249,12.943,5.249 M14.535,5.206c1.107,0,2.126,0.081,3.123-0.035c0.483-0.055,1.022-0.391,1.353-0.764
	c0.234-0.266,0.323-0.864,0.195-1.21c-0.34-0.925-2.014-1.466-2.846-0.949C15.294,2.912,14.79,3.954,14.535,5.206"/>
</svg>
