<?xml version="1.0" encoding="utf-8"?>
<!-- Generator: Adobe Illustrator 16.0.0, SVG Export Plug-In . SVG Version: 6.00 Build 0)  -->
<!DOCTYPE svg PUBLIC "-//W3C//DTD SVG 1.1//EN" "http://www.w3.org/Graphics/SVG/1.1/DTD/svg11.dtd">
<svg version="1.1" id="Layer_1" xmlns="http://www.w3.org/2000/svg" xmlns:xlink="http://www.w3.org/1999/xlink" x="0px" y="0px"
	 width="35.625px" height="32.875px" viewBox="0 0 35.625 32.875" enable-background="new 0 0 35.625 32.875" xml:space="preserve">
<rect x="-3.571" y="-3.162" fill="#FFFFFF" width="42.207" height="39.172"/>
<path d="M5.877,24.86c-0.65-0.088-1.25-0.11-1.817-0.258c-1.86-0.483-3.143-2.138-3.166-4.054c-0.009-0.804-0.073-1.631,0.091-2.403
	c0.294-1.383,1.146-2.419,2.457-2.988c0.473-0.205,0.667-0.419,0.683-0.958C4.328,7.309,9.818,1.538,16.654,0.998
	c6.986-0.553,13.289,4.136,14.676,10.92c0.024,0.116,0.069,0.233,0.068,0.349c-0.012,1.629,0.416,2.908,2.02,3.792
	c0.988,0.545,1.351,1.777,1.321,2.978c-0.02,0.831,0.061,1.694-0.138,2.484c-0.594,2.372-3.076,3.797-5.514,3.223
	c-0.229-0.054-0.543-0.432-0.546-0.663c-0.038-2.858-0.028-5.719-0.023-8.579c0-0.51,0.265-0.763,0.785-0.745
	c0.325,0.01,0.65,0.001,1.102,0.001c-0.111-4.169-1.691-7.575-4.999-10.011c-4.214-3.102-8.784-3.438-13.449-1.063
	C7.835,5.78,5.126,10.41,5.364,14.643c0.048,0.032,0.094,0.087,0.144,0.09c1.612,0.102,1.612,0.101,1.612,1.734
	c0.001,2.562-0.033,5.125,0.01,7.687c0.069,4.144,3.52,7.314,7.557,6.875c0-0.721,0.015-1.457-0.004-2.192
	c-0.017-0.597,0.227-0.875,0.841-0.868c1.52,0.016,3.039,0.016,4.558-0.001c0.598-0.006,0.848,0.232,0.872,0.845
	c0.08,2.063-1.231,3.493-3.281,3.487c-1.667-0.006-3.356,0.114-4.994-0.113C9.829,31.787,6.583,29.651,5.877,24.86 M5.877,16.053
	c-1.526-0.19-2.652,0.303-3.381,1.574c-0.727,1.27-0.573,3.693,0.301,4.744c0.798,0.959,1.817,1.342,3.08,1.09V16.053z
	 M29.759,23.498c1.532,0.177,2.658-0.317,3.382-1.595c0.726-1.278,0.569-3.683-0.314-4.741c-0.8-0.957-1.818-1.34-3.067-1.072
	V23.498z M15.976,31.028c2.524,0.306,3.622-0.235,3.638-1.78h-3.638V31.028z"/>
</svg>
