<?xml version="1.0" encoding="utf-8"?>
<!-- Generator: Adobe Illustrator 16.0.0, SVG Export Plug-In . SVG Version: 6.00 Build 0)  -->
<!DOCTYPE svg PUBLIC "-//W3C//DTD SVG 1.1//EN" "http://www.w3.org/Graphics/SVG/1.1/DTD/svg11.dtd">
<svg version="1.1" id="Layer_1" xmlns="http://www.w3.org/2000/svg" xmlns:xlink="http://www.w3.org/1999/xlink" x="0px" y="0px"
	 width="51.25px" height="25.375px" viewBox="0 0 51.25 25.375" enable-background="new 0 0 51.25 25.375" xml:space="preserve">
<g>
	<defs>
		<rect id="SVGID_1_" x="-2.481" y="-5.377" width="56.695" height="35.804"/>
	</defs>
	<clipPath id="SVGID_2_">
		<use xlink:href="#SVGID_1_"  overflow="visible"/>
	</clipPath>
	<path clip-path="url(#SVGID_2_)" d="M27.937,14.207c0.087-1.299,0.296-2.84,0.271-4.376c-0.038-2.242-0.857-3.452-2.388-3.91
		c-2.13-0.637-4.61-0.057-5.678,1.541c-1.983,2.968-2.48,6.302-1.805,9.751c0.397,2.022,2.165,2.859,4.728,2.508
		c0.654-0.09,1.292-0.292,1.98-0.453v4.837c-5.868,2.825-12.658-1.073-12.917-7.548c-0.137-3.393,0.493-6.67,1.943-9.757
		c1.072-2.283,2.758-4.003,5.118-4.926c3.268-1.28,6.639-1.371,9.995-0.401c2.602,0.751,4.264,2.543,4.682,5.22
		c0.267,1.707,0.213,3.47,0.199,5.207c-0.003,0.328-0.437,0.85-0.77,0.946C31.517,13.359,29.706,13.769,27.937,14.207"/>
	<path clip-path="url(#SVGID_2_)" d="M1.948,23.998c0.835-5.916,1.633-11.574,2.465-17.476c-1.3,0.126-2.462,0.238-3.881,0.375
		c0.204-1.433,0.363-2.756,0.604-4.063c0.046-0.249,0.39-0.595,0.636-0.632c2.961-0.45,5.93-0.849,9.113-1.293
		c-0.063,0.785-0.08,1.394-0.164,1.993c-0.933,6.63-1.895,13.257-2.796,19.891c-0.123,0.909-0.424,1.264-1.354,1.224
		C5.127,23.953,3.678,23.998,1.948,23.998"/>
	<path clip-path="url(#SVGID_2_)" d="M42.289,4.806c0,0.342-0.065,0.663-0.197,0.965c-0.13,0.302-0.309,0.566-0.534,0.792
		c-0.227,0.226-0.493,0.405-0.801,0.535c-0.306,0.131-0.63,0.197-0.972,0.197s-0.664-0.066-0.965-0.197
		c-0.302-0.13-0.565-0.31-0.792-0.535c-0.226-0.226-0.405-0.49-0.535-0.792c-0.131-0.302-0.196-0.623-0.196-0.965
		c0-0.341,0.065-0.663,0.196-0.965c0.13-0.302,0.31-0.565,0.535-0.791c0.227-0.227,0.49-0.408,0.792-0.543
		c0.301-0.137,0.623-0.204,0.965-0.204s0.666,0.064,0.972,0.195c0.308,0.131,0.574,0.31,0.801,0.535
		c0.226,0.227,0.404,0.493,0.534,0.8C42.224,4.14,42.289,4.464,42.289,4.806 M39.785,6.419c0.222,0,0.43-0.042,0.626-0.127
		s0.37-0.202,0.521-0.351c0.15-0.15,0.271-0.322,0.361-0.516s0.137-0.4,0.137-0.62c0-0.219-0.043-0.425-0.13-0.62
		c-0.085-0.194-0.202-0.366-0.354-0.515c-0.15-0.15-0.326-0.269-0.527-0.359c-0.202-0.089-0.412-0.135-0.634-0.135
		c-0.221,0-0.43,0.043-0.625,0.127c-0.196,0.085-0.37,0.202-0.521,0.351c-0.151,0.15-0.27,0.324-0.354,0.524
		c-0.086,0.199-0.129,0.408-0.129,0.627c0,0.22,0.043,0.426,0.129,0.62c0.085,0.194,0.203,0.366,0.354,0.516
		c0.15,0.149,0.324,0.266,0.521,0.351C39.355,6.377,39.564,6.419,39.785,6.419 M40.374,13.039h-0.785l5.987-10.843h0.784
		L40.374,13.039z M46.21,7.821c0.341,0,0.664,0.066,0.964,0.197c0.303,0.131,0.564,0.31,0.785,0.537
		c0.221,0.227,0.395,0.492,0.521,0.794c0.125,0.303,0.188,0.625,0.188,0.968s-0.063,0.668-0.188,0.976
		c-0.126,0.308-0.3,0.575-0.521,0.801s-0.482,0.407-0.785,0.538c-0.3,0.13-0.623,0.195-0.964,0.195
		c-0.342,0-0.666-0.065-0.973-0.195c-0.307-0.131-0.573-0.312-0.8-0.538c-0.226-0.227-0.405-0.493-0.535-0.801
		s-0.196-0.633-0.196-0.976s0.068-0.665,0.204-0.968c0.136-0.302,0.316-0.567,0.543-0.794c0.225-0.228,0.49-0.406,0.791-0.537
		C45.546,7.888,45.868,7.821,46.21,7.821 M46.194,8.696c-0.23,0-0.444,0.045-0.642,0.135c-0.195,0.09-0.366,0.211-0.512,0.361
		c-0.146,0.15-0.262,0.325-0.347,0.525c-0.086,0.2-0.128,0.41-0.128,0.63c0,0.211,0.045,0.413,0.135,0.607
		c0.091,0.196,0.212,0.368,0.362,0.519c0.15,0.149,0.324,0.268,0.521,0.353s0.399,0.127,0.61,0.127c0.222,0,0.431-0.045,0.626-0.134
		c0.196-0.09,0.367-0.211,0.513-0.361c0.146-0.15,0.261-0.323,0.347-0.517c0.086-0.196,0.129-0.403,0.129-0.624
		c0-0.22-0.043-0.427-0.129-0.622c-0.086-0.196-0.2-0.368-0.347-0.519c-0.146-0.149-0.316-0.268-0.513-0.354
		C46.625,8.738,46.416,8.696,46.194,8.696"/>
	<path clip-path="url(#SVGID_2_)" fill="none" stroke="#000000" stroke-width="0.452" stroke-miterlimit="10" d="M42.289,4.806
		c0,0.342-0.065,0.663-0.197,0.965c-0.13,0.302-0.309,0.566-0.534,0.792c-0.227,0.226-0.493,0.405-0.801,0.535
		c-0.306,0.131-0.63,0.197-0.972,0.197s-0.664-0.066-0.965-0.197c-0.302-0.13-0.565-0.31-0.792-0.535
		c-0.226-0.226-0.405-0.49-0.535-0.792c-0.131-0.302-0.196-0.623-0.196-0.965c0-0.341,0.065-0.663,0.196-0.965
		c0.13-0.302,0.31-0.565,0.535-0.791c0.227-0.227,0.49-0.408,0.792-0.543c0.301-0.137,0.623-0.204,0.965-0.204
		s0.666,0.064,0.972,0.195c0.308,0.131,0.574,0.31,0.801,0.535c0.226,0.227,0.404,0.493,0.534,0.8
		C42.224,4.14,42.289,4.464,42.289,4.806z M39.785,6.419c0.222,0,0.43-0.042,0.626-0.127s0.37-0.202,0.521-0.351
		c0.15-0.15,0.271-0.322,0.361-0.516s0.137-0.4,0.137-0.62c0-0.219-0.043-0.425-0.13-0.62c-0.085-0.194-0.202-0.366-0.354-0.515
		c-0.15-0.15-0.326-0.269-0.527-0.359c-0.202-0.089-0.412-0.135-0.634-0.135c-0.221,0-0.43,0.043-0.625,0.127
		c-0.196,0.085-0.37,0.202-0.521,0.351c-0.151,0.15-0.27,0.324-0.354,0.524c-0.086,0.199-0.129,0.408-0.129,0.627
		c0,0.22,0.043,0.426,0.129,0.62c0.085,0.194,0.203,0.366,0.354,0.516c0.15,0.149,0.324,0.266,0.521,0.351
		C39.355,6.377,39.564,6.419,39.785,6.419z M40.374,13.039h-0.785l5.987-10.843h0.784L40.374,13.039z M46.21,7.821
		c0.341,0,0.664,0.066,0.964,0.197c0.303,0.131,0.564,0.31,0.785,0.537c0.221,0.227,0.395,0.492,0.521,0.794
		c0.125,0.303,0.188,0.625,0.188,0.968s-0.063,0.668-0.188,0.976c-0.126,0.308-0.3,0.575-0.521,0.801s-0.482,0.407-0.785,0.538
		c-0.3,0.13-0.623,0.195-0.964,0.195c-0.342,0-0.666-0.065-0.973-0.195c-0.307-0.131-0.573-0.312-0.8-0.538
		c-0.226-0.227-0.405-0.493-0.535-0.801s-0.196-0.633-0.196-0.976s0.068-0.665,0.204-0.968c0.136-0.302,0.316-0.567,0.543-0.794
		c0.225-0.228,0.49-0.406,0.791-0.537C45.546,7.888,45.868,7.821,46.21,7.821z M46.194,8.696c-0.23,0-0.444,0.045-0.642,0.135
		c-0.195,0.09-0.366,0.211-0.512,0.361c-0.146,0.15-0.262,0.325-0.347,0.525c-0.086,0.2-0.128,0.41-0.128,0.63
		c0,0.211,0.045,0.413,0.135,0.607c0.091,0.196,0.212,0.368,0.362,0.519c0.15,0.149,0.324,0.268,0.521,0.353s0.399,0.127,0.61,0.127
		c0.222,0,0.431-0.045,0.626-0.134c0.196-0.09,0.367-0.211,0.513-0.361c0.146-0.15,0.261-0.323,0.347-0.517
		c0.086-0.196,0.129-0.403,0.129-0.624c0-0.22-0.043-0.427-0.129-0.622c-0.086-0.196-0.2-0.368-0.347-0.519
		c-0.146-0.149-0.316-0.268-0.513-0.354C46.625,8.738,46.416,8.696,46.194,8.696z"/>
	<path clip-path="url(#SVGID_2_)" d="M34.134,24.09c-0.745,0.633-1.698,0.947-2.857,0.947c-1.161,0-1.98-0.314-2.461-0.947
		c-0.657-0.773-0.83-1.889-0.518-3.347c0.314-1.487,0.964-2.603,1.942-3.348c0.745-0.631,1.698-0.946,2.858-0.946
		s1.98,0.315,2.461,0.946c0.66,0.745,0.833,1.86,0.518,3.348C35.766,22.201,35.117,23.316,34.134,24.09 M34.382,20.743
		c0.189-0.91,0.142-1.614-0.146-2.112c-0.289-0.496-0.769-0.744-1.439-0.744c-0.672,0-1.26,0.246-1.765,0.741
		c-0.505,0.496-0.854,1.2-1.049,2.115c-0.194,0.914-0.146,1.619,0.148,2.114s0.775,0.743,1.448,0.743
		c0.672,0,1.258-0.248,1.759-0.743C33.84,22.362,34.187,21.657,34.382,20.743"/>
	<path clip-path="url(#SVGID_2_)" fill="none" stroke="#000000" stroke-width="0.291" stroke-miterlimit="10" d="M34.134,24.09
		c-0.745,0.633-1.698,0.947-2.857,0.947c-1.161,0-1.98-0.314-2.461-0.947c-0.657-0.773-0.83-1.889-0.518-3.347
		c0.314-1.487,0.964-2.603,1.942-3.348c0.745-0.631,1.698-0.946,2.858-0.946s1.98,0.315,2.461,0.946
		c0.66,0.745,0.833,1.86,0.518,3.348C35.766,22.201,35.117,23.316,34.134,24.09z M34.382,20.743c0.189-0.91,0.142-1.614-0.146-2.112
		c-0.289-0.496-0.769-0.744-1.439-0.744c-0.672,0-1.26,0.246-1.765,0.741c-0.505,0.496-0.854,1.2-1.049,2.115
		c-0.194,0.914-0.146,1.619,0.148,2.114s0.775,0.743,1.448,0.743c0.672,0,1.258-0.248,1.759-0.743
		C33.84,22.362,34.187,21.657,34.382,20.743z"/>
	<polygon clip-path="url(#SVGID_2_)" points="38.225,16.707 43.979,16.707 43.675,18.134 39.606,18.134 39.21,20 42.772,20 
		42.475,21.41 38.911,21.41 38.191,24.812 36.507,24.812 	"/>
	<polygon clip-path="url(#SVGID_2_)" fill="none" stroke="#000000" stroke-width="0.291" stroke-miterlimit="10" points="
		38.225,16.707 43.979,16.707 43.675,18.134 39.606,18.134 39.21,20 42.772,20 42.475,21.41 38.911,21.41 38.191,24.812 
		36.507,24.812 	"/>
	<polygon clip-path="url(#SVGID_2_)" points="45.112,16.707 50.866,16.707 50.563,18.134 46.494,18.134 46.098,20 49.66,20 
		49.363,21.41 45.801,21.41 45.079,24.812 43.395,24.812 	"/>
	<polygon clip-path="url(#SVGID_2_)" fill="none" stroke="#000000" stroke-width="0.291" stroke-miterlimit="10" points="
		45.112,16.707 50.866,16.707 50.563,18.134 46.494,18.134 46.098,20 49.66,20 49.363,21.41 45.801,21.41 45.079,24.812 
		43.395,24.812 	"/>
</g>
</svg>
