<?xml version="1.0" encoding="utf-8"?>
<!-- Generator: Adobe Illustrator 16.0.0, SVG Export Plug-In . SVG Version: 6.00 Build 0)  -->
<!DOCTYPE svg PUBLIC "-//W3C//DTD SVG 1.1//EN" "http://www.w3.org/Graphics/SVG/1.1/DTD/svg11.dtd">
<svg version="1.1" id="Layer_1" xmlns="http://www.w3.org/2000/svg" xmlns:xlink="http://www.w3.org/1999/xlink" x="0px" y="0px"
	 width="49.282px" height="26.153px" viewBox="0 0 49.282 26.153" enable-background="new 0 0 49.282 26.153" xml:space="preserve">
<g>
	<rect x="3.886" y="3.94" fill="#FFFFFF" width="44.896" height="21.713"/>
	<rect x="3.886" y="3.94" fill="none" stroke="#000000" stroke-miterlimit="10" width="44.896" height="21.713"/>
	<rect x="0.5" y="0.5" fill="#FFFFFF" width="44.896" height="21.712"/>
	<rect x="0.5" y="0.5" fill="none" stroke="#000000" stroke-miterlimit="10" width="44.896" height="21.712"/>
	<path d="M5.257,14.505c0.276,0.272,0.624,0.443,1.043,0.514v-2.777c-0.37-0.091-0.69-0.19-0.959-0.299
		c-0.269-0.107-0.492-0.236-0.671-0.387c-0.178-0.151-0.309-0.334-0.393-0.551c-0.084-0.216-0.126-0.479-0.126-0.786
		c0-0.314,0.057-0.602,0.168-0.864c0.112-0.262,0.264-0.489,0.456-0.682C4.967,8.481,5.194,8.33,5.456,8.218
		c0.262-0.112,0.543-0.179,0.844-0.2V7.327h0.576v0.702c0.566,0.07,1.017,0.28,1.352,0.629c0.336,0.349,0.573,0.831,0.713,1.446
		H8.05C7.91,9.413,7.519,9.007,6.876,8.888v2.578l0.629,0.168c0.14,0.035,0.304,0.096,0.493,0.183
		c0.189,0.088,0.37,0.208,0.544,0.362c0.175,0.153,0.324,0.346,0.446,0.576c0.122,0.23,0.183,0.507,0.183,0.828
		c0,0.343-0.057,0.646-0.172,0.912c-0.116,0.266-0.274,0.494-0.478,0.687c-0.202,0.192-0.443,0.344-0.722,0.456
		c-0.28,0.111-0.587,0.181-0.923,0.209v0.859H6.3v-0.859c-0.699-0.07-1.254-0.313-1.666-0.729c-0.413-0.416-0.647-0.99-0.702-1.725
		h0.89C4.836,13.863,4.981,14.233,5.257,14.505 M5.446,9.218c-0.234,0.207-0.351,0.509-0.351,0.907c0,0.182,0.029,0.337,0.089,0.466
		c0.059,0.13,0.143,0.238,0.252,0.325c0.107,0.087,0.235,0.163,0.382,0.226S6.125,11.26,6.3,11.309V8.857
		C5.965,8.892,5.68,9.012,5.446,9.218 M7.416,14.914c0.164-0.056,0.308-0.138,0.43-0.245c0.122-0.108,0.216-0.244,0.283-0.409
		c0.066-0.164,0.099-0.358,0.099-0.581c0-0.203-0.035-0.372-0.104-0.509c-0.07-0.136-0.165-0.253-0.284-0.352
		c-0.118-0.097-0.261-0.179-0.429-0.246c-0.168-0.066-0.346-0.127-0.535-0.183v2.63C7.072,15.005,7.252,14.97,7.416,14.914"/>
	<path d="M11.76,15.679v-5.324H9.832V9.643c0.252,0,0.496-0.02,0.734-0.058c0.237-0.038,0.452-0.11,0.644-0.215
		c0.192-0.105,0.355-0.248,0.488-0.429c0.132-0.182,0.223-0.412,0.272-0.692h0.681v7.43H11.76z"/>
	<path d="M30.199,15.576v-5.064h-1.834V9.833c0.239,0,0.473-0.018,0.698-0.054c0.225-0.037,0.43-0.105,0.612-0.205
		c0.184-0.1,0.338-0.236,0.463-0.409c0.127-0.173,0.213-0.392,0.26-0.658h0.648v7.068H30.199z"/>
	<path d="M36.336,9.255c0.637,0,1.12,0.164,1.447,0.491c0.328,0.328,0.492,0.786,0.492,1.377c0,0.59-0.164,1.05-0.492,1.381
		c-0.327,0.33-0.811,0.492-1.447,0.486h-1.929v2.585h-0.841v-6.32H36.336z M36.053,12.282c0.479,0.006,0.828-0.091,1.049-0.292
		c0.222-0.2,0.332-0.49,0.332-0.867c0-0.378-0.11-0.666-0.332-0.863c-0.221-0.198-0.57-0.297-1.049-0.297h-1.646v2.319H36.053z"/>
	<polygon points="38.143,9.963 38.143,9.255 43.197,9.255 43.197,9.963 41.09,9.963 41.09,15.576 40.249,15.576 40.249,9.963 	"/>
	<line fill="#FFFFFF" x1="16.059" y1="12.389" x2="25.879" y2="12.389"/>
	
		<line fill="none" stroke="#000000" stroke-width="0.901" stroke-miterlimit="10" x1="16.059" y1="12.389" x2="24.901" y2="12.389"/>
	<polygon points="21.915,16.075 21.3,15.415 24.556,12.39 21.3,9.364 21.915,8.704 25.879,12.39 	"/>
</g>
</svg>
