<?xml version="1.0" encoding="utf-8"?>
<!-- Generator: Adobe Illustrator 16.0.0, SVG Export Plug-In . SVG Version: 6.00 Build 0)  -->
<!DOCTYPE svg PUBLIC "-//W3C//DTD SVG 1.1//EN" "http://www.w3.org/Graphics/SVG/1.1/DTD/svg11.dtd">
<svg version="1.1" id="Layer_1" xmlns="http://www.w3.org/2000/svg" xmlns:xlink="http://www.w3.org/1999/xlink" x="0px" y="0px"
	 width="15px" height="49.2px" viewBox="0 0 15 49.2" enable-background="new 0 0 15 49.2" xml:space="preserve">
<path fill="#010101" d="M14.43,48.132c-0.201,0.23-0.479,0.237-0.769,0.237c-2.123-0.002-4.247,0.004-6.371,0.005
	c-1.897,0.002-3.796,0.002-5.693-0.001c-0.86-0.001-1.063-0.198-1.064-1.063c-0.007-7.688-0.011-15.374-0.015-23.062
	C0.512,16.751,0.505,9.251,0.497,1.753C0.496,0.836,0.7,0.632,1.631,0.63c3.967-0.002,7.932-0.004,11.898-0.007
	c0.883-0.001,1.096,0.208,1.096,1.1c0.006,9.059,0.007,18.119,0.013,27.178c0.004,6.014,0.013,12.028,0.02,18.042
	c0,0.226-0.007,0.451-0.009,0.677C14.647,47.816,14.584,47.987,14.43,48.132 M2.121,36.593c0.076,0.004,0.206,0.019,0.335,0.02
	c1.354-0.001,2.707-0.005,4.061-0.005c0.394,0.001,0.792-0.011,1.181,0.035c0.374,0.045,0.588,0.344,0.587,0.715
	c-0.001,0.337-0.208,0.616-0.546,0.696c-0.162,0.039-0.336,0.037-0.504,0.037c-1.409,0.002-2.819,0-4.229,0.002
	c-0.316,0.001-0.631,0.008-0.896,0.011c-0.008,1.242-0.016,2.433-0.023,3.66c0.76-0.003,1.528-0.009,2.299-0.009
	c0.431,0,0.865-0.017,1.295,0.021c0.38,0.033,0.619,0.325,0.63,0.678c0.013,0.372-0.239,0.689-0.621,0.756
	c-0.165,0.028-0.337,0.021-0.505,0.021c-0.884,0.005-1.768,0.002-2.651,0.009c-0.162,0.002-0.338-0.052-0.445,0.036
	c-0.001,1.213-0.003,2.391-0.003,3.486c3.671-0.002,7.361-0.004,10.951-0.006c-0.009-14.836-0.018-29.729-0.025-44.476
	C9.379,2.276,5.688,2.27,2.108,2.264C2.1,3.381,2.091,4.557,2.079,5.748c0.114,0.053,0.269,0.023,0.415,0.023
	C3.998,5.772,5.503,5.77,7.007,5.77c0.206-0.001,0.415-0.012,0.618,0.015c0.361,0.05,0.623,0.342,0.64,0.68
	c0.018,0.385-0.216,0.69-0.609,0.759C7.474,7.256,7.281,7.25,7.095,7.25C5.571,7.254,4.05,7.251,2.526,7.259
	C2.35,7.26,2.15,7.19,1.993,7.343c0.056,0.002,0.107,0.003,0.161,0.005c-0.022,1.175-0.046,2.351-0.068,3.577
	c0.809-0.006,1.635-0.011,2.459-0.013c0.356-0.001,0.716-0.015,1.069,0.014c0.382,0.031,0.664,0.348,0.679,0.709
	c0.014,0.351-0.263,0.674-0.645,0.735c-0.146,0.025-0.299,0.02-0.45,0.02c-0.846,0.001-1.69-0.004-2.537,0.003
	c-0.221,0.003-0.452-0.056-0.56,0.01c-0.018,1.245-0.036,2.424-0.053,3.607c0.113,0.076,0.249,0.042,0.377,0.041
	c1.597,0,3.195,0,4.793-0.005c0.71-0.002,1.048,0.228,1.054,0.73c0.006,0.491-0.349,0.749-1.035,0.75
	c-1.596,0.003-3.193,0.005-4.792,0.011c-0.142,0.001-0.302-0.052-0.384,0.04c0.001,1.222,0.003,2.399,0.005,3.654
	c0.428-0.011,0.876-0.029,1.326-0.032c0.713-0.005,1.428-0.015,2.141,0.003c0.474,0.013,0.775,0.322,0.774,0.727
	c-0.001,0.406-0.305,0.706-0.772,0.741c-0.241,0.017-0.486,0.009-0.731,0.004c-0.919-0.018-1.838-0.038-2.712-0.057
	c-0.002,1.297-0.003,2.488-0.006,3.699c0.168,0.004,0.354,0.014,0.542,0.013c1.597,0.002,3.194-0.004,4.793,0.006
	c0.543,0.002,0.868,0.309,0.855,0.758c-0.012,0.444-0.299,0.689-0.839,0.715c-0.149,0.007-0.3,0.003-0.451,0.004
	c-1.446,0-2.893-0.003-4.341,0.002c-0.201,0-0.411-0.046-0.576,0.039c-0.013,1.199-0.026,2.378-0.042,3.604
	c0.324,0.005,0.642,0.014,0.956,0.016c0.846,0.001,1.692-0.013,2.536,0.002c0.463,0.008,0.778,0.319,0.785,0.722
	c0.006,0.407-0.286,0.706-0.755,0.747c-0.244,0.022-0.489,0.014-0.734,0.01c-0.917-0.017-1.834-0.037-2.733-0.055
	C2.097,34.179,2.108,35.357,2.121,36.593"/>
</svg>
