<?xml version="1.0" encoding="UTF-8"?>
<svg xmlns="http://www.w3.org/2000/svg" version="1.1" viewBox="0 0 800 512.82">
  <defs>
    <style>
      .cls-1 {
        fill: #f2ae14;
      }

      .cls-2 {
        fill: #fff;
      }

      .cls-3 {
        fill: #0e4595;
      }
    </style>
  </defs>
  <!-- Generator: Adobe Illustrator 28.7.9, SVG Export Plug-In . SVG Version: 1.2.0 Build 218)  -->
  <g>
    <g id="Layer_1">
      <path class="cls-3" d="M41.03,0h717.95c22.66,0,41.03,18.37,41.03,41.03v430.77c0,22.66-18.37,41.03-41.03,41.03H41.03c-22.66,0-41.03-18.37-41.03-41.03V41.03C0,18.37,18.37,0,41.03,0Z"/>
      <path class="cls-2" d="M300.72,357.67l34.22-200.78h54.73l-34.24,200.78h-54.7ZM553.14,161.22c-10.84-4.07-27.83-8.43-49.05-8.43-54.08,0-92.17,27.23-92.49,66.26-.31,28.85,27.19,44.95,47.95,54.55,21.3,9.84,28.46,16.12,28.36,24.91-.13,13.46-17.01,19.61-32.74,19.61-21.9,0-33.54-3.04-51.51-10.54l-7.05-3.19-7.68,44.95c12.78,5.6,36.42,10.46,60.96,10.71,57.53,0,94.87-26.92,95.3-68.6.2-22.84-14.38-40.22-45.95-54.55-19.13-9.29-30.84-15.49-30.72-24.89,0-8.35,9.92-17.27,31.34-17.27,17.9-.28,30.86,3.63,40.96,7.69l4.9,2.32,7.42-43.52M693.97,156.89h-42.29c-13.1,0-22.9,3.58-28.66,16.65l-81.28,184h57.47s9.39-24.74,11.52-30.17c6.28,0,62.11.09,70.09.09,1.64,7.03,6.66,30.09,6.66,30.09h50.78l-44.3-200.66h0ZM626.87,286.54c4.53-11.57,21.81-56.13,21.81-56.13-.32.54,4.49-11.62,7.26-19.16l3.7,17.31s10.48,47.93,12.67,57.98h-45.43ZM254.26,156.89l-53.58,136.92-5.71-27.83c-9.97-32.07-41.05-66.83-75.79-84.22l48.99,175.59,57.9-.07,86.16-200.4h-57.97"/>
      <path class="cls-1" d="M150.69,156.88H62.44l-.7,4.18c68.65,16.62,114.08,56.78,132.94,105.04l-19.19-92.27c-3.31-12.71-12.92-16.51-24.81-16.95"/>
    </g>
  </g>
</svg>