<?xml version="1.0" encoding="utf-8"?>
<!-- Generator: Adobe Illustrator 16.0.0, SVG Export Plug-In . SVG Version: 6.00 Build 0)  -->
<!DOCTYPE svg PUBLIC "-//W3C//DTD SVG 1.1//EN" "http://www.w3.org/Graphics/SVG/1.1/DTD/svg11.dtd">
<svg version="1.1" id="Layer_1" xmlns="http://www.w3.org/2000/svg" xmlns:xlink="http://www.w3.org/1999/xlink" x="0px" y="0px"
	 width="181.75px" height="22.375px" viewBox="0 0 181.75 22.375" enable-background="new 0 0 181.75 22.375" xml:space="preserve">
<polygon points="15.673,21.954 12.872,11.519 12.811,11.519 10.131,21.954 5.655,21.954 0.662,6.405 5.229,6.405 8.121,16.961 
	8.184,16.961 10.801,6.405 15.003,6.405 17.683,16.933 17.744,16.933 20.636,6.405 25.082,6.405 20.118,21.954 "/>
<path d="M31.231,0.48v8.09h0.092c0.547-0.902,1.248-1.558,2.101-1.968c0.853-0.412,1.684-0.619,2.497-0.619
	c1.158,0,2.105,0.156,2.847,0.467c0.74,0.31,1.324,0.74,1.751,1.292c0.425,0.552,0.725,1.224,0.898,2.017
	c0.172,0.792,0.259,1.669,0.259,2.63v9.564h-4.324v-8.782c0-1.283-0.203-2.24-0.61-2.873c-0.406-0.63-1.126-0.946-2.162-0.946
	c-1.177,0-2.03,0.346-2.558,1.037c-0.527,0.691-0.791,1.83-0.791,3.412v8.151h-4.323V0.48H31.231z"/>
<path d="M49.591,18.225c0.649,0.622,1.584,0.932,2.801,0.932c0.872,0,1.624-0.215,2.252-0.648c0.63-0.428,1.017-0.885,1.157-1.365
	l3.807-0.002c-0.608,1.864-1.542,3.199-2.802,4.002c-1.259,0.801-2.78,1.201-4.567,1.201c-1.238,0-2.354-0.194-3.349-0.587
	c-0.994-0.39-1.836-0.946-2.527-1.669c-0.689-0.721-1.223-1.584-1.597-2.587c-0.376-1.001-0.565-2.104-0.565-3.306
	c0-1.163,0.193-2.245,0.579-3.248c0.387-1.003,0.935-1.87,1.646-2.601c0.709-0.734,1.556-1.309,2.542-1.73
	c0.983-0.42,2.075-0.632,3.271-0.632c1.342,0,2.508,0.256,3.503,0.767c0.993,0.512,1.809,1.2,2.45,2.06
	c0.639,0.862,1.101,1.844,1.387,2.948c0.283,1.103,0.384,2.255,0.304,3.458H48.525C48.586,16.601,48.941,17.603,49.591,18.225
	 M54.478,10.044c-0.518-0.56-1.304-0.842-2.359-0.842c-0.691,0-1.264,0.116-1.72,0.345c-0.458,0.231-0.822,0.518-1.095,0.857
	c-0.274,0.342-0.468,0.703-0.579,1.083c-0.112,0.382-0.179,0.723-0.199,1.025h7.035C55.356,11.428,54.998,10.605,54.478,10.044"/>
<path d="M66.55,6.405v2.888h0.06c0.204-0.482,0.478-0.927,0.823-1.338c0.346-0.41,0.74-0.762,1.188-1.053
	c0.446-0.29,0.922-0.516,1.431-0.676c0.508-0.16,1.036-0.241,1.583-0.241c0.285,0,0.599,0.05,0.945,0.15v3.97
	c-0.203-0.039-0.447-0.074-0.73-0.105c-0.284-0.029-0.559-0.044-0.823-0.044c-0.792,0-1.461,0.13-2.009,0.391
	c-0.549,0.26-0.989,0.616-1.324,1.067c-0.335,0.453-0.574,0.977-0.715,1.578c-0.143,0.604-0.213,1.255-0.213,1.957v7.007H62.44
	V6.405H66.55z"/>
<path d="M78.912,18.225c0.65,0.622,1.584,0.932,2.801,0.932c0.873,0,1.624-0.215,2.252-0.648c0.63-0.428,1.017-0.885,1.157-1.367
	h3.807c-0.608,1.864-1.542,3.199-2.802,4c-1.259,0.803-2.78,1.203-4.567,1.203c-1.238,0-2.354-0.194-3.349-0.587
	c-0.995-0.39-1.836-0.946-2.528-1.669c-0.69-0.721-1.224-1.584-1.597-2.587c-0.377-1.001-0.565-2.104-0.565-3.306
	c0-1.163,0.193-2.245,0.579-3.248c0.386-1.003,0.935-1.87,1.646-2.602c0.708-0.732,1.556-1.308,2.542-1.729
	c0.983-0.42,2.075-0.633,3.271-0.633c1.34,0,2.507,0.257,3.501,0.768c0.995,0.512,1.811,1.2,2.452,2.06
	c0.639,0.862,1.099,1.844,1.385,2.948c0.285,1.103,0.386,2.255,0.306,3.458H77.846C77.908,16.601,78.263,17.603,78.912,18.225
	 M83.799,10.044c-0.518-0.56-1.304-0.842-2.359-0.842c-0.691,0-1.264,0.116-1.72,0.345c-0.458,0.231-0.822,0.517-1.096,0.857
	c-0.275,0.342-0.468,0.703-0.579,1.083c-0.112,0.382-0.179,0.723-0.199,1.023h7.034C84.678,11.428,84.318,10.605,83.799,10.044"/>
<path d="M104.336,6.405v2.166h0.092c0.548-0.904,1.26-1.559,2.132-1.97c0.871-0.409,1.767-0.617,2.678-0.617
	c1.157,0,2.107,0.157,2.849,0.466c0.74,0.311,1.323,0.742,1.749,1.293c0.427,0.552,0.728,1.222,0.899,2.016
	c0.172,0.791,0.259,1.669,0.259,2.63v9.564h-4.323v-8.782c0-1.283-0.205-2.239-0.609-2.871c-0.406-0.633-1.127-0.947-2.162-0.947
	c-1.176,0-2.03,0.345-2.558,1.036c-0.528,0.692-0.791,1.831-0.791,3.414v8.15h-4.323V6.405H104.336z"/>
<path d="M122.908,18.225c0.65,0.622,1.584,0.932,2.803,0.932c0.871,0,1.623-0.214,2.251-0.648c0.631-0.428,1.018-0.885,1.157-1.367
	h3.808c-0.608,1.864-1.543,3.199-2.803,4.002c-1.258,0.801-2.78,1.201-4.567,1.201c-1.236,0-2.354-0.195-3.35-0.587
	c-0.994-0.39-1.834-0.946-2.527-1.668c-0.688-0.722-1.223-1.585-1.597-2.587c-0.377-1.002-0.565-2.105-0.565-3.307
	c0-1.163,0.193-2.245,0.58-3.25c0.387-1.002,0.934-1.869,1.645-2.601c0.709-0.732,1.557-1.308,2.543-1.729
	c0.982-0.422,2.074-0.632,3.271-0.632c1.342,0,2.508,0.256,3.504,0.767c0.992,0.512,1.81,1.198,2.449,2.06
	c0.641,0.862,1.102,1.844,1.387,2.948c0.283,1.103,0.385,2.255,0.304,3.458h-11.358C121.903,16.601,122.258,17.603,122.908,18.225
	 M127.795,10.044c-0.518-0.562-1.304-0.842-2.359-0.842c-0.691,0-1.264,0.115-1.721,0.345c-0.457,0.231-0.821,0.518-1.095,0.857
	c-0.274,0.342-0.469,0.703-0.579,1.083c-0.112,0.382-0.179,0.723-0.199,1.025h7.036C128.673,11.428,128.314,10.604,127.795,10.044"
	/>
<polygon points="134.6,6.405 139.532,6.405 142.305,10.466 145.045,6.405 149.824,6.405 144.647,13.685 150.464,21.954 
	145.531,21.954 142.242,17.051 138.954,21.954 134.114,21.954 139.776,13.773 "/>
<path d="M160.754,6.405v2.859h-3.164v7.698c0,0.722,0.121,1.202,0.363,1.442s0.731,0.361,1.462,0.361c0.244,0,0.476-0.01,0.7-0.029
	c0.222-0.02,0.437-0.052,0.639-0.092v3.31c-0.365,0.059-0.771,0.101-1.216,0.119c-0.447,0.021-0.884,0.03-1.312,0.03
	c-0.668,0-1.303-0.045-1.902-0.135s-1.126-0.267-1.583-0.525c-0.456-0.262-0.817-0.633-1.081-1.115
	c-0.265-0.479-0.395-1.111-0.395-1.893V9.264h-2.619V6.405h2.619V1.744h4.324v4.661H160.754z"/>
<path d="M168.716,3.226v5.975h-1.919V3.226h-2.203v-1.44h6.326v1.44H168.716z M179.091,9.201V3.944h-0.038l-1.996,5.256h-1.298
	l-1.997-5.256h-0.037v5.256h-1.807V1.786h2.56l1.94,4.877l1.939-4.877h2.54v7.415H179.091z"/>
</svg>
